eulertext-regular.sfdir
StartChar: exclam
Encoding: 33 33 127
Width: 296
Flags: W
HStem: -12 117 184 21<132 132> 670 20<136 167>
VStem: 101 88
LayerCount: 2
Fore
SplineSet
90 46 m 0
 90 77 116 103 148 103 c 0
 179 103 204 77 204 46 c 0
 204 15 179 -11 148 -11 c 0
 116 -11 90 15 90 46 c 0
132 184 m 1
 105 567 l 2
 104 586 101 608 102 625 c 1
 102 676 120 690 152 690 c 0
 182 690 189 664 189 644 c 0
 189 615 187 586 184 557 c 2
 148 186 l 1
 132 184 l 1
EndSplineSet
EndChar
StartChar: quotedbl
Encoding: 34 34 127
Width: 215
Flags: W
HStem: 432 21<34 34 34 55 155 176 155 155> 675 20
VStem: 9 67<645 667.5> 128 68<665.5 677.5>
LayerCount: 2
Fore
SplineSet
34 432 m 1
 14 584 l 2
 11 608 9 633 9 657 c 0
 9 678 18 695 43 695 c 0
 57 695 76 689 76 675 c 2
 76 623 l 1
 55 432 l 1
 34 432 l 1
155 432 m 1
 133 625 l 2
 131 639 128 663 128 668 c 0
 128 687 149 692 167 692 c 0
 178 692 196 686 196 673 c 0
 196 657 196 641 195 626 c 2
 176 432 l 1
 155 432 l 1
EndSplineSet
EndChar
StartChar: numbersign
Encoding: 35 35 140
Width: 742
UnlinkRmOvrlpSave: 1
Flags: W
HStem: 218 41<30 650> 468 41<95 710>
DStem2: 141 23 178 6 0.268437 0.963297<0 706.74> 390 23 427 6 0.268437 0.963297<0 706.74>
LayerCount: 2
Fore
SplineSet
612 705 m 1
 619 695 l 1
 427 6 l 1
 394 9 l 1
 390 23 l 1
 579 704 l 1
 590 707 l 1
 612 705 l 1
85 499 m 1
 93 509 l 1
 716 509 l 1
 722 476 l 1
 710 468 l 1
 95 468 l 1
 89 478 l 1
 85 499 l 1
20 249 m 1
 28 259 l 1
 656 259 l 1
 662 226 l 1
 650 218 l 1
 30 218 l 1
 24 228 l 1
 20 249 l 1
363 705 m 1
 370 695 l 1
 178 6 l 1
 145 9 l 1
 141 23 l 1
 330 704 l 1
 341 707 l 1
 363 705 l 1
EndSplineSet
EndChar
StartChar: dollar
Encoding: 36 36 139
Width: 471
UnlinkRmOvrlpSave: 1
Flags: W
HStem: 3 44<157.069 291.809> 649 35<197.253 313.634>
VStem: 71 76<472.199 590.513> 230 40<-99 790> 360 84<134.282 243.439>
LayerCount: 2
Fore
SplineSet
270 -99 m 1
 230 -107 l 1
 230 790 l 1
 270 798 l 1
 270 -99 l 1
441 593 m 1
 381 540 l 1
 368 543 l 1
 352 606 318 649 253 649 c 0
 192 649 147 599 147 537 c 0
 147 463 218 419 292 387 c 0
 392 343 444 292 444 216 c 0
 444 91 305 3 184 3 c 0
 118 3 54 31 27 100 c 1
 82 163 l 1
 98 162 l 1
 118 96 157 47 224 47 c 0
 298 47 360 106 360 186 c 0
 360 239 302 290 245 315 c 0
 130 364 71 411 71 504 c 0
 71 623 169 684 273 684 c 0
 342 684 399 672 441 593 c 1
EndSplineSet
EndChar
StartChar: percent
Encoding: 37 37 139
Width: 753
Flags: W
HStem: -12 46<528.139 622.772> -1 21G<35 79.4721> 441 46<132.139 226.772>
VStem: 20 59<545.231 668.633> 280 57<555.374 670.643> 416 59<92.2309 215.633> 676 57<102.374 217.643>
DStem2: 36 31 63 -1 0.635743 0.771901<0 967.456>
LayerCount: 2
Fore
SplineSet
584 342 m 1xbe
 660 322 733 255 733 179 c 0
 733 89 639 -12 548 -12 c 0
 460 -12 416 65 416 136 c 0
 416 228 499 299 584 342 c 1xbe
534 290 m 1
 489 264 475 216 475 171 c 0
 475 108 516 34 590 34 c 0
 662 34 676 95 676 145 c 0
 676 217 619 284 534 290 c 1
188 795 m 1
 264 775 337 708 337 632 c 0
 337 542 243 441 152 441 c 0
 64 441 20 518 20 589 c 0
 20 681 103 752 188 795 c 1
138 743 m 1
 93 717 79 669 79 624 c 0
 79 561 120 487 194 487 c 0
 266 487 280 548 280 598 c 0
 280 670 223 737 138 743 c 1
683 766 m 1
 684 753 l 1
 63 -1 l 1x7e
 35 17 l 1
 36 31 l 1
 652 777 l 1
 663 777 l 1
 683 766 l 1
EndSplineSet
EndChar
StartChar: ampersand
Encoding: 38 38 129
Width: 738
Flags: W
HStem: -8 40 352 46 652 46
VStem: 49 78<171.5 240.5> 181 61<537.5 565.5> 374 72<584 599.5> 511 52 711 23
LayerCount: 2
Fore
SplineSet
346 356 m 1
 348 399 l 1
 404 396 481 396 548 396 c 0
 600 396 674 396 704 399 c 1
 701 351 l 1
 660 358 603 358 554 358 c 1
 559 337 563 316 563 295 c 0
 563 228 530 168 489 115 c 1
 492 112 l 1
 518 84 557 53 597 53 c 0
 668 53 698 125 713 189 c 1
 734 184 l 1
 718 95 675 -11 566 -11 c 0
 516 -11 471 14 436 48 c 1
 431 52 l 1
 391 20 336 -8 278 -8 c 0
 218 -8 154 4 111 47 c 0
 72 86 49 140 49 195 c 0
 49 286 96 329 207 397 c 1
 191 436 181 478 181 520 c 0
 181 611 242 698 344 698 c 0
 394 698 446 661 446 606 c 0
 446 562 432 525 399 495 c 0
 369 467 295 424 278 416 c 1
 326 310 390 217 474 131 c 1
 500 169 512 218 512 266 c 0
 512 296 497 324 476 345 c 0
 460 361 437 361 415 361 c 0
 392 361 369 359 346 356 c 1
416 68 m 1
 336 157 262 266 216 376 c 1
 148 331 127 281 127 218 c 0
 127 125 194 31 293 31 c 0
 346 31 384 42 416 68 c 1
270 435 m 1
 353 487 374 517 374 582 c 0
 374 617 339 663 307 663 c 0
 247 663 242 605 242 559 c 0
 242 516 253 475 270 435 c 1
EndSplineSet
EndChar
StartChar: parenleft
Encoding: 40 40 113
Width: 389
Flags: W
HStem: -186 21 718 20<301 301>
VStem: 113 52<239.5 318.5>
LayerCount: 2
Fore
SplineSet
301 -163 m 1
 301 -187 l 1
 196 -178 148 -57 131 38 c 0
 117 118 113 199 113 280 c 0
 113 357 118 435 133 510 c 0
 152 606 197 720 301 738 c 1
 301 711 l 1
 174 679 165 425 165 274 c 0
 165 105 172 -138 301 -163 c 1
EndSplineSet
EndChar
StartChar: parenright
Encoding: 41 41 114
Width: 389
Flags: W
HStem: -187 21 715 20
VStem: 224 52<219 315>
LayerCount: 2
Fore
SplineSet
86 709 m 1
 86 736 l 1
 255 701 276 439 276 272 c 0
 276 101 265 -166 86 -189 c 1
 86 -165 l 1
 132 -153 170 -127 190 -67 c 0
 226 40 224 162 224 276 c 0
 224 354 220 434 205 511 c 0
 190 586 167 680 86 709 c 1
EndSplineSet
EndChar
StartChar: asterisk
Encoding: 42 42 116
Width: 278
Flags: W
HStem: 449 21 672 20<117 157 157 157>
VStem: 121 31
LayerCount: 2
Fore
SplineSet
157 448 m 1
 117 448 l 1
 123 486 125 516 126 559 c 1
 99 538 73 515 49 487 c 1
 28 522 l 1
 62 539 89 557 115 575 c 1
 86 596 59 612 30 627 c 1
 57 655 l 1
 79 634 100 615 125 596 c 1
 125 628 125 659 117 692 c 1
 157 692 l 1
 150 659 148 630 146 597 c 1
 171 617 194 638 214 659 c 1
 239 628 l 1
 207 613 179 596 151 576 c 1
 182 553 211 533 239 520 c 1
 213 491 l 1
 196 510 172 532 146 552 c 1
 147 517 149 484 157 448 c 1
EndSplineSet
EndChar
StartChar: hyphen
Encoding: 45 45 138
Width: 334
Flags: W
HStem: 236 40<53 282>
VStem: 46 242
LayerCount: 2
Fore
SplineSet
282 236 m 1
 46 236 l 1
 53 276 l 1
 288 276 l 1
 282 236 l 1
EndSplineSet
EndChar
StartChar: period
Encoding: 46 46 48
Width: 278
Flags: MW
HStem: -21 129
VStem: 81 126
LayerCount: 2
Fore
SplineSet
77 52 m 0
 77 89 107 119 144 119 c 0
 181 119 211 89 211 52 c 0
 211 15 181 -15 144 -15 c 0
 107 -15 77 15 77 52 c 0
EndSplineSet
EndChar
StartChar: one
Encoding: 49 49 39
Width: 500
Flags: MW
HStem: -5 21<226 226> 612 29 692 20<308 308>
VStem: 222 86
LayerCount: 2
Fore
SplineSet
308 712 m 1
 314 700 l 1
 309 611 307 521 307 432 c 0
 307 296 307 98 310 22 c 1
 226 -5 l 1
 214 0 l 1
 219 139 222 279 222 419 c 0
 222 530 237 612 175 612 c 2
 92 612 l 1
 92 639 l 1
 308 712 l 1
EndSplineSet
EndChar
StartChar: three
Encoding: 51 51 41
Width: 500
Flags: MW
HStem: -17 43 345 31 639 63<222 238>
VStem: 352 94<146.5 207.5>
LayerCount: 2
Fore
SplineSet
241 382 m 1
 241 374 l 1
 368 363 446 315 446 215 c 0
 446 78 314 -17 181 -17 c 0
 124 -17 70 3 25 38 c 1
 18 49 l 1
 60 121 l 1
 70 121 l 1
 100 70 145 23 206 23 c 0
 296 23 352 100 352 186 c 0
 352 229 332 269 303 300 c 0
 264 341 185 345 125 345 c 1
 126 371 l 1
 247 399 317 450 317 540 c 0
 317 602 268 639 208 639 c 0
 169 639 123 610 86 586 c 1
 72 608 l 1
 123 651 191 702 253 702 c 0
 334 702 399 655 399 568 c 0
 399 472 328 407 241 382 c 1
EndSplineSet
EndChar
StartChar: seven
Encoding: 55 55 45
Width: 500
Flags: MW
HStem: -8 21<81 81> 606 80<286 392>
VStem: 49 445<615 674>
LayerCount: 2
Fore
SplineSet
494 674 m 1
 340 422 l 2
 262 294 197 158 165 12 c 1
 81 -8 l 1
 75 0 l 1
 99 82 184 232 238 324 c 2
 238 324 336 495 398 594 c 1
 392 606 l 1
 56 606 l 1
 49 615 l 1
 70 694 l 1
 88 688 241 686 286 686 c 2
 494 686 l 1
 494 674 l 1
EndSplineSet
EndChar
StartChar: eight
Encoding: 56 56 46
Width: 500
Flags: MW
HStem: -10 46 655 51
VStem: 40 83<142 203.5> 374 87<132.5 205.5>
LayerCount: 2
Fore
SplineSet
238 334 m 1
 169 298 123 254 123 177 c 0
 123 107 166 32 245 32 c 0
 328 32 374 89 374 168 c 0
 374 243 320 282 238 334 c 1
312 385 m 1
 418 313 461 277 461 197 c 0
 461 68 338 -10 219 -10 c 0
 171 -10 117 0 82 35 c 0
 50 67 40 112 40 157 c 0
 40 250 93 289 201 352 c 1
 201 363 l 1
 146 401 89 459 89 530 c 0
 89 628 173 674 254 706 c 1
 257 706 260 706 263 706 c 0
 365 706 435 650 435 568 c 0
 435 496 372 433 312 396 c 1
 312 385 l 1
279 412 m 1
 321 441 351 490 351 543 c 0
 351 593 308 659 223 659 c 1
 177 629 166 601 166 562 c 0
 166 503 226 449 279 412 c 1
EndSplineSet
EndChar
StartChar: nine
Encoding: 57 57 47
Width: 500
Flags: MW
HStem: -9 21<129 129> 298 57 648 54
VStem: 42 87 382 80<485.5 524>
LayerCount: 2
Fore
SplineSet
214 11 m 1
 129 -9 l 1
 119 -1 l 1
 139 45 187 109 232 167 c 1
 232 167 317 281 349 336 c 1
 344 342 l 1
 295 316 246 299 194 299 c 0
 125 299 40 369 40 465 c 0
 40 517 50 562 79 598 c 0
 108 634 196 680 246 702 c 1
 391 702 462 635 462 528 c 0
 462 443 402 347 350 270 c 0
 296 191 227 94 214 11 c 1
351 384 m 0
 376 409 382 447 382 482 c 0
 382 566 327 644 219 644 c 0
 162 644 129 567 129 515 c 0
 129 438 175 352 259 352 c 0
 292 352 327 360 351 384 c 0
EndSplineSet
EndChar
StartChar: colon
Encoding: 58 58 119
Width: 216
Flags: W
HStem: -12 117 343 115
VStem: 50 119
LayerCount: 2
Fore
SplineSet
50 45 m 0
 50 76 76 102 108 102 c 0
 139 102 164 76 164 45 c 0
 164 14 139 -12 108 -12 c 0
 76 -12 50 14 50 45 c 0
50 398 m 0
 50 429 76 455 108 455 c 0
 139 455 164 429 164 398 c 0
 164 367 139 341 108 341 c 0
 76 341 50 367 50 398 c 0
EndSplineSet
EndChar
StartChar: semicolon
Encoding: 59 59 120
Width: 216
Flags: W
HStem: -190 289<89 125.5> 343 116
VStem: 46 134
LayerCount: 2
Fore
SplineSet
48 400 m 0
 48 431 74 457 106 457 c 0
 137 457 162 431 162 400 c 0
 162 369 137 343 106 343 c 0
 74 343 48 369 48 400 c 0
89 -190 m 1
 74 -177 l 1
 98 -145 121 -100 121 -64 c 0
 121 -50 115 -38 108 -26 c 2
 74 25 l 2
 69 33 65 42 65 51 c 0
 65 63 66 78 74 86 c 2
 76 88 l 1
 85 95 96 99 108 99 c 0
 143 99 179 17 179 -22 c 0
 179 -83 129 -141 89 -190 c 1
EndSplineSet
EndChar
StartChar: less
Encoding: 60 60 50
Width: 756
Flags: MW
HStem: -39 21 514 20
VStem: 46 636
LayerCount: 2
Fore
SplineSet
680 505 m 1
 678 496 l 1
 156 255 l 1
 156 243 l 1
 675 2 l 1
 680 -8 l 1
 669 -31 l 1
 659 -36 l 1
 59 244 l 1
 59 256 l 1
 660 531 l 1
 671 528 l 1
 680 505 l 1
EndSplineSet
EndChar
StartChar: equal
Encoding: 61 61 122
Width: 756
Flags: W
HStem: 236 40
LayerCount: 2
Fore
SplineSet
716 329 m 1
 54 329 l 1
 61 369 l 1
 722 369 l 1
 716 329 l 1
716 132 m 1
 54 132 l 1
 61 172 l 1
 722 172 l 1
 716 132 l 1
EndSplineSet
EndChar
StartChar: greater
Encoding: 62 62 52
Width: 756
Flags: MW
HStem: -39 21 514 20
VStem: 77 637
LayerCount: 2
Fore
SplineSet
78 494 m 1
 76 504 l 1
 86 528 l 1
 96 531 l 1
 698 256 l 1
 698 244 l 1
 98 -36 l 1
 88 -31 l 1
 80 -7 l 1
 84 2 l 1
 602 245 l 1
 602 254 l 1
 78 494 l 1
EndSplineSet
EndChar
StartChar: question
Encoding: 63 63 121
Width: 362
Flags: W
HStem: -11 114<146.5 178> 184 21 653 40
VStem: 190 109 369 71
LayerCount: 2
Fore
SplineSet
106 46 m 0
 106 77 131 103 162 103 c 0
 194 103 220 77 220 46 c 0
 220 15 194 -11 162 -11 c 0
 131 -11 106 15 106 46 c 0
186 211 m 1
 140 179 l 1
 117 193 98 220 98 250 c 0
 98 270 111 289 124 305 c 0
 188 388 287 432 287 545 c 0
 287 599 239 661 189 661 c 0
 150 661 108 634 108 589 c 0
 108 565 121 543 140 528 c 1
 73 488 l 1
 55 504 45 531 45 557 c 0
 45 640 150 693 229 693 c 0
 305 693 358 642 358 565 c 0
 358 532 345 505 328 476 c 0
 281 397 159 336 159 274 c 0
 159 254 170 234 186 222 c 1
 186 211 l 1
EndSplineSet
EndChar
StartChar: at
Encoding: 64 64 144
Width: 692
VWidth: 768
Flags: W
HStem: -93 57<234.37 298.167> 61 46<281.114 382.29 467.5 547.073> 371 24<317.057 408.11>
VStem: 180 71<138.634 296.526> 436 60<125.23 347.432>
LayerCount: 2
Back
SplineSet
306 -64 m 0
 207 -56 129 3 88 74 c 0
 31 172 40 294 96 386 c 0
 143 464 223 521 312 538 c 0
 393 554 482 534 547 482 c 0
 603 437 651 361 644 264 c 0
 637 174 583 103 517 67 c 0
EndSplineSet
Fore
SplineSet
436 138 m 1
 436 299 l 2
 436 317 436 336 423 348 c 0
 409 361 390 371 370 371 c 0
 341 371 315 362 294 344 c 0
 276 329 252 291 251 220 c 0
 250 191 256 160 274 136 c 0
 291 113 323 107 352 107 c 0
 384 107 413 123 436 138 c 1
453 371 m 1
 495 393 l 1
 499 389 l 1
 495 337 495 285 495 233 c 0
 495 206 496 178 496 151 c 0
 496 134 498 105 525 105 c 0
 588 105 611 195 615 249 c 0
 628 427 465 541 297 509 c 0
 244 499 194 474 152 439 c 1
 61 330 55 141 153 36 c 1
 195 -3 253 -31 320 -36 c 1
 334 -51 l 1
 291 -93 l 1
 186 -85 103 -17 59 59 c 0
 2 157 11 279 67 371 c 0
 119 457 217 544 326 565 c 0
 501 599 686 462 672 277 c 0
 667 214 640 161 601 122 c 1
 577 95 516 61 482 61 c 0
 453 61 442 78 438 102 c 1
 426 105 l 1
 387 83 343 61 297 61 c 0
 209 61 180 135 180 199 c 0
 180 298 236 395 368 395 c 0
 393 395 428 387 453 371 c 1
EndSplineSet
EndChar
StartChar: A
Encoding: 65 65 54
Width: 661
Flags: W
HStem: -10 59<507.5 636> -2 21G<-45 49> 273 39<195.003 393.906> 653 27<193 235>
DStem2: 480 317 395 328 0.276071 -0.961137<-293.618 -23.2846 17.5687 245.783>
LayerCount: 2
Fore
SplineSet
466 76 m 2xb0
 412 264 l 2
 410 268 404 273 401 273 c 2
 176 273 l 2
 172 273 168 269 166 265 c 2
 49 17 l 1
 -42 -2 l 1x70
 -45 8 l 1
 74 208 189 412 294 620 c 0
 295 623 295 624 295 627 c 0
 295 630 292 636 283 638 c 2
 193 653 l 1
 193 680 l 1
 387 680 l 1
 402 597 447 437 480 317 c 0
 502 236 529 139 565 79 c 0
 578 57 602 49 629 49 c 0
 643 49 658 51 672 52 c 1
 673 26 l 1
 569 -4 l 2
 554 -8 539 -10 524 -10 c 0
 491 -10 478 32 466 76 c 2xb0
312 572 m 2
 196 328 l 2
 195 326 195 320 195 319 c 0
 195 316 199 312 202 312 c 2
 390 312 l 2
 395 312 397 316 397 319 c 2
 397 319 395 327 395 328 c 2
 325 572 l 2
 324 574 321 576 318 576 c 0
 315 576 312 573 312 572 c 2
EndSplineSet
EndChar
StartChar: D
Encoding: 68 68 57
Width: 728
Flags: W
HStem: 2 38<176.114 390.177> 645 41<163.643 446.17> 659 27<8 47.5>
VStem: 78 84<50.8478 641.851> 594 94<230.992 501.91>
LayerCount: 2
Fore
SplineSet
162 575 m 2xd8
 162 170 l 1
 163 130 165 68 180 53 c 0
 193 40 232 40 259 40 c 0
 529 40 594 209 594 377 c 0
 594 438 577 535 521 591 c 0
 473 638 373 645 242 645 c 0
 199 645 182 644 176 641 c 0
 166 636 162 646 162 575 c 2xd8
56 2 m 1
 56 12 l 1
 76 27 77 41 78 79 c 1
 78 573 l 2
 78 589 77 605 76 620 c 0
 74 645 27 651 1 659 c 1
 1 678 l 1
 8 686 l 1xb8
 321 686 l 2
 631 686 688 562 688 385 c 0
 688 258 666 174 589 91 c 0
 522 18 391 2 287 2 c 2
 56 2 l 1
EndSplineSet
EndChar
StartChar: F
Encoding: 70 70 59
Width: 413
Flags: W
HStem: -2 21G<70 160> 336 54<184.404 396> 341 37<155.084 370.654> 649 39<162.332 395.5> 660 28<-4 18.6154>
VStem: 68 92<13 340.997> 75 80<116.857 340.997 378.006 625.346>
LayerCount: 2
Fore
SplineSet
75 360 m 1xa2
 77 521 l 2
 77 564 84 637 44 647 c 2
 -11 660 l 1
 -11 681 l 1
 -4 688 l 1xaa
 138 688 344 688 417 690 c 1
 417 637 l 1
 409 629 l 1
 337 634 265 649 193 649 c 0
 180 649 166 643 161 626 c 0
 157 612 154 602 154 391 c 0
 154 386 158 378 167 378 c 0xb2
 240 378 330 387 402 390 c 1xc2
 401 341 l 1xa2
 396 336 l 1xc2
 326 340 238 341 167 341 c 0
 162 341 155 337 155 330 c 0xa2
 155 229 156 114 160 13 c 1
 68 -2 l 1xa4
 72 119 75 239 75 360 c 1xa2
EndSplineSet
EndChar
StartChar: H
Encoding: 72 72 61
Width: 695
Flags: W
HStem: 0 32<640.116 688> 346 39<165.09 532.998> 659 26<9 43.2074>
VStem: 82 82<118.59 346 385 636.516> 530 93<429.554 673> 533 79<51.1429 346 385 565.143>
LayerCount: 2
Fore
SplineSet
694 14 m 1xf4
 688 0 l 1
 539 0 l 1
 528 21 l 1
 530 118 533 237 533 334 c 0
 533 339 530 346 521 346 c 2
 178 346 l 2
 171 346 165 341 165 334 c 0
 165 289 164 232 164 178 c 0
 164 120 164 76 170 26 c 1
 78 -2 l 1
 72 3 l 1
 82 116 82 245 82 367 c 0
 82 450 82 533 76 616 c 0
 74 643 60 639 3 659 c 1
 2 678 l 1
 9 685 l 1
 171 685 l 1
 176 680 l 1
 164 612 163 489 163 397 c 0
 163 392 165 385 175 385 c 2
 521 385 l 2
 532 385 533 391 533 397 c 0xf4
 533 483 530 587 530 673 c 1
 618 690 l 1
 623 684 l 1xf8
 614 563 612 443 612 322 c 0
 612 241 613 160 616 79 c 1
 616 43 686 32 693 32 c 1
 694 14 l 1xf4
EndSplineSet
EndChar
StartChar: I
Encoding: 73 73 62
Width: 309
Flags: W
HStem: -1 24<36 77.344 256.875 301> 655 28<40 95.7891 267.286 290>
VStem: 125 79<46.9375 603.259>
LayerCount: 2
Fore
SplineSet
301 -1 m 1
 36 -1 l 1
 36 25 l 1
 134 44 121 51 125 134 c 1
 125 497 l 2
 125 536 125 574 122 612 c 0
 120 642 113 637 33 655 c 1
 33 677 l 1
 40 683 l 1
 290 683 l 1
 296 677 l 1
 296 656 l 1
 229 641 l 2
 216 638 208 627 207 615 c 0
 198 556 204 437 204 359 c 0
 204 292 205 230 206 169 c 0
 207 126 196 51 238 40 c 0
 259 34 302 23 303 23 c 2
 301 -1 l 1
EndSplineSet
EndChar
StartChar: M
Encoding: 77 77 66
Width: 963
Flags: W
HStem: -6 52<819 935.623> 1 21G<388.5 466.325> 661 29<53 69.0526>
VStem: 39 82<23 110.355>
DStem2: 484 147 456 1 0.458725 0.888578<-13.412 492.978>
LayerCount: 2
Fore
SplineSet
760 690 m 1x70
 863 690 l 1
 863 678 l 1
 836 664 838 627 838 583 c 0
 838 419 839 266 856 102 c 0
 859 73 881 46 914 46 c 0
 927 46 952 50 970 52 c 1
 970 28 l 1
 926 12 874 -6 834 -6 c 0xb0
 804 -6 771 3 771 29 c 2
 771 211 l 2
 771 236 763 482 761 548 c 0
 761 556 758 563 753 563 c 0
 750 563 745 560 742 555 c 2
 456 1 l 1
 426 1 l 1
 351 181 257 410 194 538 c 0
 191 543 187 548 183 548 c 0
 162 548 128 113 121 23 c 1
 46 -3 l 1
 39 0 l 1
 77 196 112 393 139 591 c 0
 140 595 140 599 140 603 c 0
 140 621 130 637 112 642 c 2
 44 661 l 1
 46 683 l 1
 53 690 l 1
 229 690 l 1
 284 529 378 329 461 152 c 0
 463 148 468 138 472 138 c 0
 476 138 482 143 484 147 c 2
 760 690 l 1x70
EndSplineSet
EndChar
StartChar: N
Encoding: 78 78 67
Width: 745
Flags: W
HStem: 0 21G<95 150.667 616.5 664> 656 34<26 81.8559>
VStem: 108 42<345.817 563.991> 617 47<165.004 203.232>
DStem2: 188 690 168 555 0.630803 -0.775943<78.3351 92.1363 454.68 674.079>
LayerCount: 2
Fore
SplineSet
673 694 m 1
 679 686 l 1
 666 459 664 227 664 0 c 1
 628 0 l 1
 605 26 591 42 561 80 c 2
 402 278 l 2
 300 404 217 499 168 555 c 0
 165 559 161 564 157 564 c 0
 150 564 150 552 150 547 c 0
 150 418 163 199 174 25 c 1
 104 -5 l 1
 95 4 l 1
 103 162 108 321 108 479 c 0
 108 522 107 565 107 608 c 0
 107 629 117 633 22 656 c 1
 18 683 l 1
 26 690 l 1
 188 690 l 1
 321 514 483 299 600 173 c 0
 603 170 607 165 611 165 c 0
 616 165 617 171 617 173 c 0
 617 275 614 374 593 678 c 1
 673 694 l 1
EndSplineSet
EndChar
StartChar: Q
Encoding: 81 81 70
Width: 732
Flags: W
HStem: -235 46<527.769 664.892> -16 38<277.516 315.807> 660 38<268.082 444.06>
VStem: 27 93<196.023 473.871> 587 95<202.273 481.079>
LayerCount: 2
Fore
SplineSet
708 -174 m 1
 715 -194 l 1
 676 -210 611 -235 560 -235 c 0
 444 -235 369 -117 307 -16 c 1
 238 -16 161 2 112 57 c 0
 56 120 27 210 27 300 c 0
 27 438 54 533 128 609 c 0
 196 679 291 698 386 698 c 0
 463 698 541 680 599 622 c 0
 662 559 682 449 682 366 c 0
 682 269 676 251 663 210 c 0
 648 166 637 133 595 87 c 0
 550 38 480 8 417 -7 c 1
 413 -17 l 1
 429 -47 455 -96 475 -122 c 0
 490 -143 532 -189 621 -189 c 0
 637 -189 685 -180 708 -174 c 1
351 22 m 0
 537 22 587 198 587 338 c 0
 587 495 513 660 362 660 c 0
 170 660 120 481 120 334 c 0
 120 245 143 156 205 92 c 0
 243 52 298 22 351 22 c 0
EndSplineSet
EndChar
StartChar: S
Encoding: 83 83 72
Width: 471
Flags: W
HStem: -15 46<123.091 258.862> 665 37<163.568 285.926>
VStem: 31 80<480.708 599.73> 335 88<124.889 237.105>
LayerCount: 2
Fore
SplineSet
420 606 m 1
 357 550 l 1
 344 553 l 1
 327 619 290 665 222 665 c 0
 158 665 111 612 111 547 c 0
 111 469 186 423 264 389 c 0
 369 343 423 289 423 209 c 0
 423 77 277 -15 150 -15 c 0
 81 -15 13 14 -15 87 c 1
 42 153 l 1
 59 152 l 1
 80 82 121 31 192 31 c 0
 270 31 335 94 335 178 c 0
 335 234 274 288 214 314 c 0
 93 366 31 414 31 512 c 0
 31 637 134 702 243 702 c 0
 316 702 376 689 420 606 c 1
EndSplineSet
EndChar
StartChar: T
Encoding: 84 84 73
Width: 539
Flags: W
HStem: -10 21G<216 299.074> 635 62<4 216.835 325.985 535> 644 42<66.6636 227.28 316.391 482.307>
VStem: 229 83<192.399 641.799>
LayerCount: 2
Fore
SplineSet
543 689 m 1xb0
 543 641 l 1
 535 634 l 1
 367 642 346 644 325 644 c 0xb0
 311 644 312 559 312 438 c 0
 312 317 318 138 325 17 c 1
 225 -10 l 1
 216 -1 l 1
 224 126 229 253 229 380 c 0
 229 462 228 606 227 636 c 0
 227 640 223 642 218 642 c 0
 194 642 115 639 4 635 c 1
 -4 642 l 1
 -4 690 l 1
 3 697 l 1xd0
 98 694 98 686 275 686 c 0
 350 686 449 692 537 696 c 1
 543 689 l 1xb0
EndSplineSet
EndChar
StartChar: V
Encoding: 86 86 75
Width: 664
Flags: W
HStem: -16 21G<271 333.308> 655 33<-9 52.8032> 677 21G<-9 185.5 598 690>
LayerCount: 2
Fore
SplineSet
598 680 m 1xa0
 684 697 l 1
 690 678 l 1
 625 599 563 489 551 468 c 0
 479 335 406 175 349 10 c 1
 281 -16 l 1
 271 -9 l 1
 128 473 l 1
 113 519 100 565 80 609 c 0
 64 642 41 647 -15 655 c 1
 -16 682 l 1
 -9 688 l 1xc0
 166 698 l 1
 205 507 260 320 331 138 c 0
 333 134 337 132 339 131 c 1
 346 133 369 185 410 274 c 1
 529 548 l 2
 548 593 573 637 598 680 c 1xa0
EndSplineSet
EndChar
StartChar: W
Encoding: 87 87 76
Width: 945
Flags: W
HStem: -11 21G<181 236.138 591 647.444> 655 31<-33 10.2849>
DStem2: 250 161 438 473 0.406138 0.913812<151.217 444.964>
LayerCount: 2
Fore
SplineSet
925 675 m 1
 1006 689 l 1
 1006 668 l 1
 891 480 l 2
 844 403 728 173 663 16 c 1
 603 -11 l 1
 591 -3 l 1
 559 178 522 357 482 536 c 0
 481 541 480 548 475 548 c 0
 472 548 468 541 466 536 c 2
 438 473 l 2
 384 352 303 173 256 18 c 1
 192 -11 l 1
 181 -6 l 1
 158 122 133 249 103 375 c 0
 83 456 63 537 33 614 c 0
 22 642 -8 649 -39 655 c 1
 -41 679 l 1
 -33 686 l 1
 123 689 l 1
 138 608 197 338 236 163 c 0
 237 158 241 157 243 157 c 0
 246 157 249 159 250 161 c 0
 292 244 424 535 469 661 c 1
 545 690 l 1
 552 684 l 1
 552 622 583 471 614 325 c 0
 626 270 645 139 663 139 c 0
 672 139 674 143 676 146 c 2
 756 316 l 1
 865 558 l 2
 886 604 908 643 925 675 c 1
EndSplineSet
EndChar
StartChar: X
Encoding: 88 88 77
Width: 596
Flags: W
HStem: 0 10G<-11 83 474 569.481> 649 31<17 59.0559> 668 20G<140.5 174.053 499 594>
DStem2: 163 688 115 590 0.49826 -0.867028<0.988939 303.874 400.663 604.851>
LayerCount: 2
Fore
SplineSet
594 672 m 1xa0
 407 466 l 1
 377 431 344 387 340 380 c 1
 341 368 456 179 496 131 c 2
 556 59 l 2
 563 52 585 38 593 36 c 1
 598 32 l 1
 598 16 l 1
 488 -11 l 1
 474 -5 l 1
 456 13 441 35 428 57 c 2
 285 296 l 1
 273 296 l 1
 230 244 119 87 83 11 c 1
 -11 0 l 1
 -11 16 l 1
 260 345 l 1
 255 345 162 508 115 590 c 0
 93 628 51 638 10 649 c 1
 10 674 l 1
 17 680 l 1xc0
 42 681 118 685 163 688 c 1
 310 422 l 1
 319 422 l 1
 352 455 490 653 499 674 c 1
 594 687 l 1
 594 672 l 1xa0
EndSplineSet
EndChar
StartChar: Y
Encoding: 89 89 78
Width: 520
Flags: W
HStem: -11 21G<209 282.069> 651 35<-16 31.3889> 673 20G<480 569>
VStem: 209 101<18 242> 212 89<82 299>
LayerCount: 2
Fore
SplineSet
212 299 m 1xa8
 63 594 l 2
 40 639 17 645 -23 651 c 1
 -23 679 l 1
 -16 686 l 1
 129 686 l 1xc8
 270 361 l 2
 271 359 276 353 282 353 c 0
 287 353 322 406 352 460 c 0
 360 474 444 619 480 676 c 1
 565 693 l 1
 569 675 l 1
 458 530 384 434 301 306 c 1xa8
 310 18 l 1
 220 -11 l 1
 209 -2 l 1xb0
 212 98 212 199 212 299 c 1xa8
EndSplineSet
EndChar
StartChar: Z
Encoding: 90 90 79
Width: 591
Flags: W
HStem: -12 80<327.457 572> 0 68<152 229.295> 675 20G<91 174>
LayerCount: 2
Fore
SplineSet
545 664 m 1x60
 410 471 236 200 146 61 c 1
 152 68 l 1
 581 68 l 1x60
 590 59 l 1
 572 -12 l 1xa0
 443 0 189 0 -3 0 c 1
 -4 21 l 1
 420 627 l 1
 413 637 l 1
 226 637 124 631 97 628 c 1
 91 633 l 1
 91 687 l 1
 100 695 l 1
 248 686 396 683 545 683 c 1
 545 664 l 1x60
EndSplineSet
EndChar
StartChar: bracketleft
Encoding: 91 91 124
Width: 278
Flags: W
HStem: -120 24<252 279> 712 24<252 279>
VStem: 120 40<-83 699 -83 741>
LayerCount: 2
Fore
SplineSet
279 712 m 1
 160 699 l 1
 160 -83 l 1
 279 -96 l 1
 279 -120 l 1
 225 -120 172 -120 120 -125 c 1
 120 741 l 1
 159 736 225 736 279 736 c 1
 279 712 l 1
EndSplineSet
EndChar
StartChar: backslash
Encoding: 92 92 135
Width: 502
Flags: W
HStem: -194 21 706 20
VStem: 35 427
LayerCount: 2
Fore
SplineSet
428 -192 m 1
 39 704 l 1
 44 715 l 1
 75 722 l 1
 463 -171 l 1
 460 -184 l 1
 428 -192 l 1
EndSplineSet
EndChar
StartChar: asciicircum
Encoding: 94 94 126
Width: 500
Flags: W
HStem: 451 22 715 20<251 251>
VStem: 0 495<464 486>
LayerCount: 2
Fore
SplineSet
251 735 m 1
 495 486 l 1
 456 459 l 1
 248 673 l 1
 23 452 l 1
 0 464 l 1
 251 735 l 1
EndSplineSet
EndChar
StartChar: underscore
Encoding: 95 95 141
Width: 756
Flags: W
HStem: -114 40<0 756>
LayerCount: 2
Fore
SplineSet
756 -114 m 1
 0 -114 l 1
 0 -74 l 1
 756 -74 l 1
 756 -114 l 1
EndSplineSet
EndChar
StartChar: grave
Encoding: 96 96 143
Width: 520
Flags: W
LayerCount: 2
Fore
SplineSet
272 487 m 1
 290 518 l 1
 170 675 l 1
 157 677 l 1
 110 641 l 1
 272 487 l 1
EndSplineSet
EndChar
StartChar: b
Encoding: 98 98 82
Width: 508
Flags: W
HStem: -10 48<175.891 287.589> 406 62<233.627 336.085> 640 26<-22 43.7222> 664 20G<-22 153>
VStem: 66 73<82.0448 360.765 399 627.138> 385 83<171.589 347.025>
LayerCount: 2
Fore
SplineSet
-28 661 m 1xec
 -22 666 l 1xec
 147 684 l 1xdc
 153 677 l 1
 145 595 139 514 139 432 c 0
 139 421 139 410 139 399 c 1
 148 394 l 1
 201 434 259 468 327 468 c 0
 420 468 468 392 468 308 c 0
 468 264 463 220 449 177 c 0
 414 70 297 -10 183 -10 c 0
 132 -10 66 12 66 123 c 2
 66 599 l 2
 66 634 58 627 -28 640 c 1
 -28 661 l 1xec
143 347 m 1
 141 313 139 268 139 229 c 0
 139 116 150 38 238 38 c 0
 344 38 385 135 385 227 c 0
 385 300 369 342 355 363 c 0
 342 383 318 406 280 406 c 0
 227 406 182 381 143 347 c 1
EndSplineSet
EndChar
StartChar: d
Encoding: 100 100 84
Width: 518
Flags: W
HStem: -18 66<184.147 282.303 408.5 494.732> 428 34<219.91 337.828> 638 26<279 336.05> 664 20G<279 450>
VStem: 46 87<106.118 303.839> 373 77<81.4683 397.447 451 622.391>
LayerCount: 2
Fore
SplineSet
274 660 m 1xec
 279 664 l 1xec
 442 684 l 1xdc
 450 675 l 1
 450 110 l 1
 452 81 458 48 488 48 c 0
 498 48 529 59 549 67 c 1
 557 44 l 1
 518 17 467 -19 428 -19 c 0
 389 -19 371 19 369 54 c 1
 318 19 254 -18 195 -18 c 0
 81 -18 46 91 46 180 c 0
 46 320 121 462 283 462 c 0
 312 462 339 456 366 447 c 1
 373 451 l 1
 372 504 373 576 366 602 c 1
 355 637 308 638 275 638 c 1
 274 660 l 1xec
369 95 m 1
 373 310 l 1
 373 364 362 428 279 428 c 0
 167 428 133 297 133 203 c 0
 133 133 161 48 251 48 c 0
 286 48 342 68 369 95 c 1
EndSplineSet
EndChar
StartChar: e
Encoding: 101 101 85
Width: 434
Flags: W
HStem: -12 68<180.512 293.526> 438 40<187.871 300.998>
VStem: 34 83<178.428 341.668> 338 86<318.791 403.219>
DStem2: 123 238 121 197 0.917793 0.397059<0 239.114>
LayerCount: 2
Fore
SplineSet
163 396 m 1
 124 354 117 309 117 260 c 0
 117 254 118 248 119 242 c 1
 123 238 l 1
 325 318 l 2
 331 320 338 328 338 344 c 0
 338 386 303 438 247 438 c 0
 214 438 184 422 163 396 c 1
403 319 m 2
 121 197 l 1
 127 134 161 56 250 56 c 0
 305 56 359 89 404 124 c 1
 415 122 l 1
 428 104 l 1
 366 46 286 -12 200 -12 c 0
 66 -12 34 113 34 226 c 0
 34 284 46 343 85 388 c 0
 134 445 206 478 282 478 c 0
 368 478 424 417 424 340 c 0
 424 328 414 324 403 319 c 2
EndSplineSet
EndChar
StartChar: f
Encoding: 102 102 86
Width: 294
Flags: W
HStem: -12 21G<85 167.833> 399 35<-14 91 177 292> 629 40<202.591 273.899>
VStem: 98 73<45.0477 391 440 571.626>
LayerCount: 2
Fore
SplineSet
-14 434 m 1
 91 434 l 1
 97 440 l 1
 97 475 99 526 115 562 c 0
 145 632 205 669 268 669 c 0
 322 669 348 642 361 615 c 1
 303 561 l 1
 291 565 l 1
 287 586 280 629 233 629 c 0
 190 629 173 542 173 440 c 1
 177 434 l 1
 301 434 l 1
 306 427 l 1
 299 405 l 1
 292 399 l 1
 177 399 l 1
 171 393 l 1
 171 282 l 2
 171 188 174 93 181 12 c 1
 102 -12 l 1
 85 -1 l 1
 92 98 98 192 98 283 c 2
 98 391 l 1
 92 399 l 1
 -20 399 l 1
 -25 406 l 1
 -21 428 l 1
 -14 434 l 1
EndSplineSet
Substitution2: "f.alt-1" f.alt
EndChar
StartChar: i
Encoding: 105 105 89
Width: 258
Flags: W
HStem: -8 73<134.5 220.35> 410 61<30.3355 116.5> 569 114<66.5802 156.605>
VStem: 52 118<582.255 667.75> 76 72<74.5065 365.75> 82 74<208.25 406.033>
LayerCount: 2
Fore
SplineSet
156 392 m 1xe4
 148 182 l 1xe8
 148 108 157 65 192 65 c 0
 230 65 257 86 284 110 c 1
 297 100 l 1
 297 89 l 1
 263 44 211 -8 156 -8 c 0xe4
 113 -8 76 5 76 104 c 1xe8
 82 325 l 1
 82 377 73 410 47 410 c 0
 25 410 -9 393 -33 378 c 1
 -46 396 l 1
 -1 432 55 471 94 471 c 0
 139 471 156 436 156 392 c 1xe4
170 625 m 1xf0
 168 592 142 569 110 569 c 0
 78 569 52 595 52 627 c 0
 52 661 87 683 116 683 c 0
 150 683 170 655 170 625 c 1xf0
EndSplineSet
EndChar
StartChar: l
Encoding: 108 108 92
Width: 255
Flags: W
HStem: -11 76<125.5 219.704> 638 28<-10 47.75> 666 20G<-10 161>
VStem: 69 78<78.2707 501.812>
LayerCount: 2
Fore
SplineSet
281 112 m 1xb0
 292 112 l 1
 303 100 l 1
 269 47 217 -11 151 -11 c 0
 100 -11 69 15 69 130 c 1
 76 508 l 2
 76 541 76 584 71 608 c 0
 64 639 16 636 -16 638 c 1
 -16 661 l 1
 -10 666 l 1xd0
 155 686 l 1
 161 679 l 1
 157 539 147 399 147 259 c 0
 147 160 135 69 195 65 c 1
 228 65 256 90 281 112 c 1xb0
EndSplineSet
EndChar
StartChar: n
Encoding: 110 110 94
Width: 589
Flags: W
HStem: -10 70<440.5 536.857> 413 58<47.4125 134 289.502 392.5>
VStem: 94 85<18 249.795> 103 79<53.0968 363.83> 396 79<66.9117 378.99>
LayerCount: 2
Fore
SplineSet
179 18 m 1xe8
 109 -6 l 1
 94 1 l 1xe8
 96 52 103 217 103 298 c 0
 103 365 99 413 66 413 c 0
 45 413 20 397 -9 378 c 1
 -26 400 l 1
 15 430 72 471 109 471 c 0
 159 471 175 440 181 403 c 1
 189 397 l 1
 245 431 314 469 378 469 c 0
 407 469 436 462 455 440 c 0
 475 416 475 320 475 256 c 0
 475 105 468 60 523 60 c 0
 546 60 578 81 603 100 c 1
 616 100 l 1
 625 79 l 1
 579 34 516 -10 468 -10 c 0
 413 -10 396 30 396 78 c 1
 401 249 l 1
 401 349 382 410 311 410 c 0
 265 410 218 378 182 349 c 1xd8
 179 277 176 189 176 116 c 0
 176 88 177 58 179 18 c 1xe8
EndSplineSet
EndChar
StartChar: o
Encoding: 111 111 95
Width: 520
Flags: W
HStem: -14 41<189.399 319.454> 426 39<187.054 315.389>
VStem: 32 86<113.789 337.774> 384 89<118.06 347.826>
LayerCount: 2
Fore
SplineSet
126 316 m 0
 120 291 118 265 118 239 c 0
 118 155 144 27 253 27 c 0
 361 27 384 137 384 220 c 0
 384 302 365 426 252 426 c 0
 198 426 144 390 126 316 c 0
226 -14 m 0
 88 -14 39 90 32 196 c 1
 32 265 39 339 87 391 c 0
 134 443 205 465 275 465 c 0
 422 465 473 351 473 239 c 0
 473 174 459 108 415 59 c 0
 368 6 296 -14 226 -14 c 0
EndSplineSet
EndChar
StartChar: q
Encoding: 113 113 97
Width: 529
Flags: W
HStem: -7 62<141.398 291.305> 434 37<225.214 341.333>
VStem: 52 92<111.753 313.79> 374 77<-128.145 54 88.4273 355.322>
LayerCount: 2
Fore
SplineSet
382 -243 m 1
 366 -227 l 1
 369 -186 371 -42 374 54 c 1
 367 59 l 1
 316 21 258 -7 195 -7 c 0
 90 -7 52 102 52 186 c 0
 52 325 123 471 292 471 c 0
 323 471 363 457 391 443 c 1
 400 445 l 1
 444 504 l 1
 465 500 l 1
 455 384 451 245 451 113 c 0
 451 -9 455 -125 463 -214 c 1
 382 -243 l 1
374 105 m 1
 374 331 l 2
 374 356 374 386 358 402 c 0
 340 420 317 434 291 434 c 0
 178 434 144 325 144 213 c 0
 144 130 176 55 258 55 c 0
 297 55 341 76 374 105 c 1
EndSplineSet
EndChar
StartChar: r
Encoding: 114 114 98
Width: 330
Flags: W
HStem: -3 21G<77 158.667> 402 65<229.568 307.5> 412 61<29.7301 113.5>
VStem: 89 70<20.3899 365.623>
LayerCount: 2
Fore
SplineSet
308 339 m 1xd0
 296 344 l 1
 291 372 276 402 243 402 c 0xd0
 202 402 177 367 166 340 c 0
 152 307 159 224 159 170 c 0
 159 119 160 69 162 18 c 1
 92 -3 l 1
 77 6 l 1
 83 76 89 163 89 243 c 0
 89 321 92 412 46 412 c 0
 23 412 -7 395 -32 381 c 1
 -44 398 l 1
 -5 429 50 473 91 473 c 0xb0
 136 473 157 443 163 401 c 1
 173 397 l 1
 202 425 247 467 283 467 c 0
 332 467 357 440 362 388 c 1
 308 339 l 1xd0
EndSplineSet
EndChar
StartChar: t
Encoding: 116 116 100
Width: 317
Flags: W
HStem: -9 64<186.5 273.933> 400 35<-7 97 187 306>
VStem: 101 91<442.714 582> 103 78<83.7402 393 441 582>
LayerCount: 2
Fore
SplineSet
101 582 m 1xe0
 185 611 l 1
 192 606 l 1xe0
 187 549 182 498 181 440 c 1
 187 435 l 1
 315 435 l 1
 320 431 l 1
 312 405 l 1
 306 400 l 1
 187 400 l 1
 181 394 l 1
 181 205 l 2
 181 134 189 55 252 55 c 0
 277 55 313 77 343 96 c 1
 355 94 l 1
 362 79 l 1
 316 36 256 -9 198 -9 c 0
 175 -9 144 -2 126 22 c 0
 105 49 103 68 103 203 c 2
 103 393 l 1
 97 400 l 1
 -15 400 l 1
 -20 405 l 1
 -13 429 l 1
 -7 435 l 1
 97 435 l 1
 103 441 l 1xd0
 103 492 103 556 101 582 c 1xe0
EndSplineSet
EndChar
StartChar: u
Encoding: 117 117 101
Width: 529
Flags: W
HStem: -10 61<123 252.7> -8 73<408 496.822> 405 63<9.42486 109.5>
VStem: 61 77<85.3075 401.452> 359 90<202.58 435> 359 78<91.3545 424.127>
LayerCount: 2
Fore
SplineSet
581 105 m 1x74
 592 86 l 1
 545 45 482 -8 431 -8 c 0
 385 -8 366 22 362 64 c 1
 354 65 l 1x74
 298 31 225 -10 166 -10 c 0
 80 -10 61 56 61 112 c 0
 61 145 65 246 65 275 c 0
 65 366 61 382 48 396 c 0
 42 403 32 405 20 405 c 0
 6 405 -28 388 -51 375 c 1
 -64 395 l 1
 -25 425 30 468 72 468 c 0
 147 468 138 413 138 244 c 0
 138 142 136 51 228 51 c 0
 273 51 320 80 359 104 c 1xb4
 359 169 360 258 360 329 c 0
 360 375 360 414 359 435 c 1
 436 470 l 1
 449 459 l 1xb8
 441 366 437 273 437 181 c 0
 437 120 437 65 486 65 c 0
 513 65 547 88 573 107 c 1
 581 105 l 1x74
EndSplineSet
EndChar
StartChar: v
Encoding: 118 118 102
Width: 425
Flags: W
HStem: -11 21G<151.651 183.5> 408 61<-4.82342 88.5>
VStem: 355 70<274.418 412.8>
LayerCount: 2
Fore
SplineSet
371 460 m 2
 374 462 377 462 379 462 c 0
 398 462 425 420 425 362 c 0
 425 307 398 257 370 212 c 0
 325 140 270 77 211 17 c 0
 200 6 186 -8 181 -11 c 1
 157 -11 l 1
 88 247 l 2
 65 332 41 408 10 408 c 0
 -12 408 -30 400 -53 387 c 1
 -62 411 l 1
 -26 436 24 469 63 469 c 0
 114 469 128 400 156 293 c 0
 171 233 203 82 224 82 c 0
 229 82 240 96 248 104 c 0
 298 163 355 241 355 312 c 0
 355 344 335 380 318 412 c 0
 317 413 317 415 317 417 c 0
 317 420 319 423 321 425 c 2
 371 460 l 2
EndSplineSet
EndChar
StartChar: w
Encoding: 119 119 103
Width: 730
Flags: W
HStem: -8 89<476.5 535> 412 57<5.97427 97>
VStem: 662 69<280.929 384.904>
DStem2: 148 373 93 222 0.106533 -0.994309<-30.8556 244.707>
LayerCount: 2
Fore
SplineSet
624 416 m 0
 623 418 623 420 623 422 c 0
 623 425 623 428 625 429 c 2
 682 464 l 2
 683 465 685 465 688 465 c 0
 713 465 731 393 731 369 c 0
 731 314 703 263 675 216 c 0
 630 142 575 76 517 13 c 0
 507 3 495 -8 482 -8 c 0
 471 -8 459 4 456 13 c 0
 439 61 394 236 365 350 c 0
 363 354 361 360 356 360 c 0
 352 360 346 358 345 355 c 0
 289 252 221 124 166 5 c 1
 124 -8 l 1
 117 -2 l 1
 93 222 l 2
 72 413 38 412 28 412 c 0
 5 412 -28 395 -55 381 c 1
 -64 401 l 1
 -25 429 29 469 70 469 c 0
 124 469 140 414 148 373 c 0
 163 293 167 211 177 130 c 1
 188 128 l 1
 245 231 302 335 354 441 c 1
 406 467 l 1
 418 464 l 1
 444 338 471 214 515 96 c 0
 518 89 525 81 533 81 c 0
 537 81 545 87 548 91 c 0
 599 155 662 231 662 312 c 0
 662 345 642 385 624 416 c 0
EndSplineSet
EndChar
StartChar: x
Encoding: 120 120 104
Width: 402
Flags: W
HStem: -12 75<292.5 370.14> 407 57<-4.33662 62.5>
VStem: 7 44<13 40.4021>
LayerCount: 2
Fore
SplineSet
356 462 m 2
 387 433 l 2
 388 432 390 430 390 429 c 0
 390 426 389 425 387 424 c 0
 331 385 267 320 215 259 c 1
 256 169 315 63 359 63 c 0
 383 63 410 84 430 101 c 1
 438 101 l 1
 446 82 l 1
 411 44 360 -12 318 -12 c 0
 267 -12 233 62 167 191 c 1
 160 191 l 1
 121 131 81 69 51 -8 c 1
 35 -12 l 1
 7 13 l 1
 7 21 l 1
 50 90 100 159 149 223 c 1
 111 300 63 407 14 407 c 0
 -7 407 -32 394 -50 382 c 1
 -64 400 l 1
 -29 427 21 464 54 464 c 0
 71 464 94 460 108 445 c 0
 129 422 170 350 199 294 c 1
 205 293 l 1
 241 341 300 411 344 462 c 0
 345 464 347 464 350 464 c 0
 352 464 354 464 356 462 c 2
EndSplineSet
EndChar
StartChar: y
Encoding: 121 121 105
Width: 519
Flags: W
HStem: -233 41<161.861 286.4> -8 64<123.5 259.998> 410 58<16.6373 104.5>
VStem: 68 74<92.5069 404.688> 369 83<217.795 424.763>
LayerCount: 2
Fore
SplineSet
58 -182 m 1
 56 -171 l 1
 100 -115 l 1
 113 -115 l 1
 134 -153 172 -192 217 -192 c 0
 324 -192 348 -91 358 -34 c 0
 364 -1 365 32 366 64 c 1
 360 69 l 1
 304 34 236 -8 172 -8 c 0
 75 -8 68 90 68 157 c 0
 68 202 72 244 72 294 c 0
 72 366 67 410 26 410 c 0
 9 410 -22 394 -45 382 c 1
 -56 401 l 1
 -42 411 37 468 83 468 c 0
 126 468 146 435 146 398 c 0
 146 342 142 284 142 226 c 1
 145 133 154 103 170 82 c 0
 185 63 209 56 233 56 c 0
 281 56 330 86 367 108 c 1
 368 143 369 179 369 215 c 0
 369 287 366 359 361 428 c 1
 440 466 l 1
 452 462 l 1
 438 258 453 46 431 -49 c 1
 395 -179 292 -233 185 -233 c 0
 138 -233 85 -210 58 -182 c 1
EndSplineSet
EndChar
StartChar: z
Encoding: 122 122 106
Width: 365
Flags: W
HStem: -8 81<87.5934 345.012> 371 60<160.176 295.869> 390 72<52.4423 210.966>
LayerCount: 2
Fore
SplineSet
348 462 m 1xa0
 354 462 l 1xa0
 368 449 l 1
 285 361 177 228 78 94 c 1
 83 86 l 1
 181 76 279 73 288 73 c 0
 345 73 374 115 397 151 c 1
 419 139 l 1
 378 59 l 2
 358 19 331 -9 281 -8 c 1
 270 -9 195 1 152 5 c 2
 35 16 l 1
 11 16 -11 -4 -27 -27 c 1
 -33 -27 l 1
 -48 -8 l 1
 247 373 l 1
 237 371 228 371 217 371 c 0xc0
 184 371 133 390 97 390 c 0
 60 390 39 362 8 319 c 1
 -12 332 l 1
 38 421 l 1
 58 452 71 462 100 462 c 0xa0
 151 462 219 431 275 431 c 0xc0
 304 431 327 445 348 462 c 1xa0
EndSplineSet
EndChar
StartChar: braceleft
Encoding: 123 123 132
Width: 320
Flags: W
HStem: -178 17 259 26<-3 12.5> 710 20<212 292>
VStem: 108 51<467.5 551>
LayerCount: 2
Fore
SplineSet
292 -154 m 1
 292 -178 l 1
 253 -178 200 -178 176 -172 c 0
 101 -152 109 -67 109 34 c 0
 109 103 109 208 84 236 c 0
 65 257 28 259 -3 259 c 1
 -3 285 l 1
 36 285 60 286 82 305 c 0
 114 333 108 421 108 514 c 0
 108 729 132 730 292 730 c 1
 292 706 l 1
 263 706 232 705 205 698 c 0
 155 685 159 584 159 518 c 0
 159 385 138 297 74 274 c 1
 74 273 l 1
 166 241 159 121 159 30 c 0
 159 -152 195 -154 292 -154 c 1
EndSplineSet
EndChar
StartChar: bar
Encoding: 124 124 134
Width: 213
Flags: W
VStem: 86 40<-159 -159 -159 730 730 730>
LayerCount: 2
Fore
SplineSet
126 -159 m 1
 86 -167 l 1
 86 730 l 1
 126 738 l 1
 126 -159 l 1
EndSplineSet
EndChar
StartChar: braceright
Encoding: 125 125 133
Width: 320
Flags: W
HStem: -177 21 263 24 717 17
VStem: 78 52
LayerCount: 2
Fore
SplineSet
23 -175 m 1
 23 -151 l 1
 50 -151 80 -151 103 -145 c 0
 159 -132 156 -34 156 33 c 0
 156 120 149 243 241 276 c 1
 241 277 l 1
 204 290 172 330 163 398 c 0
 152 479 162 560 150 639 c 1
 135 713 85 709 23 709 c 1
 23 733 l 1
 101 732 154 735 181 701 c 0
 213 661 207 631 207 517 c 0
 207 324 211 288 318 288 c 1
 318 262 l 1
 300 263 281 261 264 257 c 0
 203 242 206 141 206 37 c 0
 206 -176 172 -175 23 -175 c 1
EndSplineSet
EndChar
StartChar: asciitilde
Encoding: 126 126 130
Width: 552
Flags: W
HStem: 178 41<415.5 445.5> 305 42<116.5 148.5>
VStem: 22 508<240 275>
LayerCount: 2
Fore
SplineSet
281 291 m 2
 355 245 l 2
 377 231 402 219 429 219 c 0
 469 219 489 249 509 286 c 1
 530 275 l 1
 510 227 473 178 418 178 c 0
 380 178 344 194 313 214 c 2
 214 277 l 2
 190 292 163 305 134 305 c 0
 94 305 73 281 44 228 c 1
 22 240 l 1
 51 298 87 347 146 347 c 0
 190 347 240 316 281 291 c 2
EndSplineSet
EndChar
StartChar: exclamdown
Encoding: 161 161 147
Width: 296
Flags: W
HStem: 385 114<103.255 191.236>
VStem: 90 114<398.171 485.829> 102 87<-195.508 93.3125>
LayerCount: 2
Fore
SplineSet
90 442 m 0xc0
 90 411 116 385 148 385 c 0
 179 385 204 411 204 442 c 0
 204 473 179 499 148 499 c 0
 116 499 90 473 90 442 c 0xc0
132 304 m 1
 105 -79 l 2
 104 -98 101 -120 102 -137 c 1
 102 -188 120 -202 152 -202 c 0
 182 -202 189 -176 189 -156 c 0xa0
 189 -127 187 -98 184 -69 c 2
 148 302 l 1
 132 304 l 1
EndSplineSet
EndChar
StartChar: currency
Encoding: 164 164 238
Width: 500
Flags: W
HStem: 102 59<172.199 329.401> 465 59<171.687 327.377>
VStem: 37 59<236.827 389.418> 404 59<236.676 388.822>
DStem2: 77 531 30 484 0.7134 -0.700757<0 70.8999 481.743 553.093> 30 141 75 96 0.7134 0.700757<0.568914 71.9184 482.916 553.661>
LayerCount: 2
Fore
SplineSet
77 531 m 1
 125 483 l 1
 162 511 202 524 250 524 c 0
 298 524 337 511 375 483 c 1
 423 531 l 1
 470 484 l 1
 421 435 l 1
 451 401 463 365 463 313 c 0
 463 263 451 228 421 190 c 1
 470 141 l 1
 425 96 l 1
 377 144 l 1
 340 114 303 102 250 102 c 0
 197 102 160 114 123 144 c 1
 75 96 l 1
 30 141 l 1
 79 190 l 1
 49 228 37 263 37 313 c 0
 37 365 49 401 79 435 c 1
 30 484 l 1
 77 531 l 1
253 465 m 0
 166 465 96 397 96 314 c 0
 96 229 165 161 250 161 c 0
 335 161 404 229 404 313 c 0
 404 395 334 465 253 465 c 0
EndSplineSet
EndChar
StartChar: brokenbar
Encoding: 166 166 151
Width: 213
Flags: W
VStem: 86 40<-159 236 335 730>
LayerCount: 2
Fore
SplineSet
126 335 m 1
 86 327 l 1
 86 730 l 1
 126 738 l 1
 126 335 l 1
126 -159 m 1
 86 -167 l 1
 86 236 l 1
 126 244 l 1
 126 -159 l 1
EndSplineSet
EndChar
StartChar: section
Encoding: 167 167 137
Width: 515
Flags: W
HStem: -107 34 669 32
VStem: 109 57<524 573.5> 357 60<25.5 79>
LayerCount: 2
Fore
SplineSet
385 166 m 1
 388 170 l 2
 401 188 406 210 406 232 c 0
 406 261 390 285 370 305 c 0
 319 358 175 386 134 442 c 1
 120 424 110 397 110 373 c 0
 110 265 321 232 385 166 c 1
56 23 m 1
 126 50 l 1
 134 45 l 1
 136 -23 181 -81 252 -81 c 0
 314 -81 357 -21 357 48 c 0
 357 110 297 136 215 176 c 1
 129 214 71 252 71 338 c 0
 71 384 93 426 119 464 c 1
 113 484 109 504 109 525 c 0
 109 622 177 701 279 701 c 0
 328 701 397 683 397 622 c 0
 397 615 393 597 391 585 c 1
 332 564 l 1
 317 575 l 1
 317 635 293 671 249 671 c 0
 198 671 166 619 166 561 c 0
 166 487 226 474 301 431 c 0
 364 395 451 371 451 285 c 0
 451 234 432 186 399 149 c 1
 412 128 417 101 417 75 c 0
 417 -24 336 -107 237 -107 c 0
 156 -107 65 -76 56 23 c 1
EndSplineSet
EndChar
StartChar: dieresis
Encoding: 168 168 146
Width: 520
Flags: W
HStem: 519 114<114.58 204.605 316.58 406.605>
VStem: 100 118<532.255 617.75> 302 118<532.255 617.75>
LayerCount: 2
Fore
SplineSet
420 575 m 1
 418 542 392 519 360 519 c 0
 328 519 302 545 302 577 c 0
 302 611 337 633 366 633 c 0
 400 633 420 605 420 575 c 1
218 575 m 1
 216 542 190 519 158 519 c 0
 126 519 100 545 100 577 c 0
 100 611 135 633 164 633 c 0
 198 633 218 605 218 575 c 1
EndSplineSet
EndChar
StartChar: copyright
Encoding: 169 169 161
Width: 564
VWidth: 770
Flags: W
HStem: 166 25<208.245 355.755> 262 26<243.871 357.608> 599 20<242.437 351.089> 683 25<208.245 355.755>
VStem: 11 25<363.245 510.755> 98 54<365.543 524.648> 528 25<363.245 510.755>
LayerCount: 2
Fore
SplineSet
11 437 m 0
 11 587 132 708 282 708 c 0
 432 708 553 587 553 437 c 0
 553 287 432 166 282 166 c 0
 132 166 11 287 11 437 c 0
36 437 m 0
 36 301 146 191 282 191 c 0
 418 191 528 301 528 437 c 0
 528 573 418 683 282 683 c 0
 146 683 36 573 36 437 c 0
415 534 m 1
 407 534 l 1
 387 579 348 599 299 599 c 0
 263 599 225 588 199 566 c 0
 163 535 152 486 152 442 c 0
 152 396 180 346 200 330 c 0
 233 302 259 288 308 288 c 0
 349 288 386 303 420 322 c 1
 430 308 l 1
 387 284 339 262 287 262 c 0
 239 262 190 272 156 300 c 0
 114 335 98 384 98 433 c 0
 98 481 111 530 153 565 c 0
 197 601 257 619 320 619 c 0
 372 619 418 605 449 563 c 1
 415 534 l 1
EndSplineSet
EndChar
StartChar: guillemotleft
Encoding: 171 171 155
Width: 476
Flags: W
DStem2: 50 238 124 234 0.71451 0.699625<50.0753 258.683> 202 238 276 234 0.71451 0.699625<50.0753 258.683>
LayerCount: 2
Fore
SplineSet
202 238 m 1
 394 426 l 1
 425 380 l 1
 276 234 l 1
 426 64 l 1
 412 36 l 1
 202 238 l 1
50 238 m 1
 242 426 l 1
 273 380 l 1
 124 234 l 1
 274 64 l 1
 260 36 l 1
 50 238 l 1
EndSplineSet
EndChar
StartChar: logicalnot
Encoding: 172 172 135
Width: 684
Flags: W
HStem: 369 40<25 588 25 628>
VStem: 588 40<206 369 369 369>
LayerCount: 2
Fore
SplineSet
628 409 m 1
 628 206 l 1
 588 206 l 1
 588 369 l 1
 25 369 l 1
 25 409 l 1
 628 409 l 1
EndSplineSet
EndChar
StartChar: plusminus
Encoding: 177 177 153
Width: 756
UnlinkRmOvrlpSave: 1
Flags: W
HStem: -75 40<53 704> 236 40<53 356 396 704>
VStem: 356 40<-67 236 276 580>
LayerCount: 2
Fore
SplineSet
396 276 m 1
 709 276 l 1
 704 236 l 1
 396 236 l 1
 396 -67 l 1
 356 -74 l 1
 356 236 l 1
 46 236 l 1
 53 276 l 1
 356 276 l 1
 356 580 l 1
 396 586 l 1
 396 276 l 1
704 -75 m 1
 46 -75 l 1
 53 -35 l 1
 710 -35 l 1
 704 -75 l 1
EndSplineSet
EndChar
StartChar: acute
Encoding: 180 180 144
Width: 520
Flags: W
HStem: 487 188
VStem: 200 180
LayerCount: 2
Fore
SplineSet
218 487 m 1
 200 518 l 1
 320 675 l 1
 333 677 l 1
 380 641 l 1
 218 487 l 1
EndSplineSet
EndChar
StartChar: paragraph
Encoding: 182 182 239
Width: 455
Flags: W
HStem: 654 25<393.433 434>
VStem: 300 69<13 272.748> 307 55<17.7587 287.508>
LayerCount: 2
Fore
SplineSet
300 13 m 1xc0
 362 -6 l 1xa0
 369 1 l 1xc0
 367 141 362 282 362 423 c 0
 362 482 364 541 367 600 c 0
 370 640 403 649 441 654 c 1
 441 672 l 1
 434 679 l 1
 284 682 l 2
 136 685 41 590 35 484 c 0
 31 400 83 303 211 293 c 0
 240 291 307 293 307 274 c 0xa0
 307 249 301 114 300 13 c 1xc0
EndSplineSet
EndChar
StartChar: uni00B9
Encoding: 185 185 162
Width: 406
VWidth: 920
Flags: W
HStem: 668 17<88 111.042>
VStem: 183 63<284 666.141>
LayerCount: 2
Fore
SplineSet
246 733 m 1
 251 725 l 1
 247 667 246 609 246 551 c 0
 246 463 246 333 248 284 c 1
 186 267 l 1
 177 270 l 1
 180 360 183 451 183 542 c 0
 183 615 195 668 149 668 c 2
 88 668 l 1
 88 685 l 1
 246 733 l 1
EndSplineSet
EndChar
StartChar: onehalf
Encoding: 189 189 232
Width: 790
VWidth: 0
Flags: W
HStem: -4 21<145 188.703> 0 52<513.004 732> 383 41<525.018 624.221> 643 16<23 47.8182> 683 20G<108.091 184> 684 20<578 610>
VStem: 117 61<289 640.07> 650 66<260.879 359.37>
DStem2: 145 23 176 -4 0.536161 0.844116<0 806.156>
LayerCount: 2
Fore
SplineSet
749 47 m 1x73
 732 0 l 1
 417 0 l 1
 417 10 l 1
 458 45 499 80 537 117 c 0
 593 172 650 233 650 304 c 0
 650 338 627 383 568 383 c 0
 528 383 497 364 469 345 c 1
 455 356 l 1
 494 391 546 424 607 424 c 0
 669 424 716 385 716 331 c 0
 716 246 601 141 515 58 c 0
 514 57 513 57 513 56 c 0
 513 52 519 52 523 52 c 2
 745 52 l 1
 749 47 l 1x73
179 703 m 5x3b
 184 695 l 5
 180 642 178 588 178 535 c 4
 178 453 179 335 181 289 c 5
 120 272 l 5
 112 275 l 5
 116 358 117 443 117 527 c 4
 117 594 127 643 83 643 c 6
 23 643 l 5
 23 659 l 5
 179 703 l 5x3b
EndSplineSet
Refer: 231 8260 N 1 0 0 1 344 0 2
EndChar
StartChar: threequarters
Encoding: 190 190 233
Width: 790
VWidth: 0
Flags: W
HStem: -5 21G<614 675> -4 21<189 232.703> 112 27<458 612 678 737> 268 24<107.837 205.538> 301 50<49 67.2459> 661 38<118.916 214.047> 684 20<622 654>
VStem: 233 60<559.775 644.118> 259 67<343.31 443.962> 617 55<13.5455 107 144 353.999>
DStem2: 189 23 220 -4 0.536161 0.844116<0 806.156>
LayerCount: 2
Fore
SplineSet
179 507 m 1x3d40
 179 502 l 1
 273 495 326 466 326 407 c 0
 326 325 232 268 136 268 c 0
 95 268 55 280 23 301 c 1
 19 307 l 1
 49 351 l 1
 56 351 l 1
 78 320 111 292 154 292 c 0
 219 292 259 338 259 390 c 0x3cc0
 259 415 244 440 224 458 c 0
 196 483 138 485 95 485 c 1
 96 501 l 1
 182 518 233 547 233 602 c 0
 233 641 196 661 155 661 c 0
 126 661 94 644 67 630 c 1
 57 643 l 1
 94 668 142 699 188 699 c 0
 244 699 293 672 293 619 c 0
 293 561 241 522 179 507 c 1x3d40
668 420 m 1
 674 417 l 1
 673 401 672 237 672 144 c 1
 678 139 l 1
 746 139 l 1
 749 135 l 1
 737 112 l 1
 678 112 l 1
 672 108 l 1
 672 76 673 28 675 15 c 1
 617 -5 l 1xb840
 614 -2 l 1
 618 19 617 69 617 107 c 1
 612 112 l 1
 408 112 l 1
 408 139 l 1
 614 399 l 1
 668 420 l 1
617 144 m 1
 617 349 l 2
 617 353 616 354 614 354 c 0
 612 354 611 353 610 352 c 0
 585 329 564 301 543 274 c 0
 516 239 456 156 455 143 c 1
 458 139 l 1
 613 139 l 1
 617 144 l 1
EndSplineSet
Refer: 231 8260 S 1 0 0 1 388 0 2
EndChar
StartChar: Thorn
Encoding: 222 222 245
Width: 519
Flags: W
HStem: -6 21G<82 148.286> 535 39<169 337.516> 654 25<17 57.5667>
VStem: 89 74<22 167.876 224.002 236 403.106 535 574 635.212> 409 96<319.097 476.897>
LayerCount: 2
Back
SplineSet
74 542 m 4
 74 562 74 581 74 601 c 4
 74 641 0 653 -14 653 c 5
 -16 673 l 5
 -8 680 l 5
 161 680 l 5
 168 674 l 5
 165 660 160 559 160 542 c 6
236 640 m 2xcc
 180 640 l 2
 173 640 171 634 171 629 c 0
 167 541 165 428 165 341 c 0
 165 332 172 329 176 329 c 0
 315 329 409 395 409 506 c 0
 409 610 328 640 236 640 c 2xcc
172 22 m 1xd4
 89 -6 l 1xcc
 82 1 l 1xd4
 84 141 89 282 89 423 c 0
 89 482 87 541 84 600 c 0
 81 640 48 649 10 654 c 1
 10 672 l 1
 17 679 l 1xac
 274 679 l 2
 438 679 505 620 505 514 c 0
 505 455 483 400 441 358 c 0
 397 313 324 298 259 293 c 0
 230 291 165 293 165 274 c 0xcc
 165 249 171 123 172 22 c 1xd4
EndSplineSet
Fore
SplineSet
236 535 m 2
 178 535 l 2
 171 535 169 529 169 524 c 0
 165 436 163 323 163 236 c 0
 163 227 170 224 174 224 c 0
 313 224 409 290 409 401 c 0
 409 505 328 535 236 535 c 2
175 673 m 1
 171 654 170 601 169 574 c 1
 274 574 l 2
 438 574 505 515 505 409 c 0
 505 350 483 295 441 253 c 0
 397 208 324 193 259 188 c 0
 230 186 165 188 165 169 c 0
 165 145 171 123 172 22 c 1
 89 -6 l 1
 82 1 l 1
 84 141 89 282 89 423 c 0
 89 482 87 541 84 600 c 0
 81 640 48 649 10 654 c 1
 10 672 l 1
 17 679 l 1
 168 679 l 1
 175 673 l 1
EndSplineSet
EndChar
StartChar: eth
Encoding: 240 240 242
Width: 489
UnlinkRmOvrlpSave: 1
Flags: W
HStem: 668 16G<159.273 229 342.319 386.667>
DStem2: 120 550 133 511 0.883292 0.468824<0 287.552>
LayerCount: 2
Fore
SplineSet
393 649 m 1
 133 511 l 1
 120 550 l 1
 380 688 l 1
 393 649 l 1
172 684 m 17
 286 644 404 512 429 356 c 0
 445 256 447 142 377 61 c 0
 349 28 311 5 270 -2 c 0
 213 -11 159 -11 118 25 c 0
 78 60 53 129 46 175 c 0
 26 302 80 437 231 461 c 0
 252 464 275 465 312 461 c 1
 315 466 l 1
 275 561 230 620 158 662 c 9
 172 684 l 17
359 145 m 0
 369 198 366 255 358 308 c 0
 352 348 342 387 328 424 c 1
 302 431 274 435 247 431 c 0
 131 413 115 280 129 190 c 0
 137 143 178 24 276 39 c 0
 328 47 351 98 359 145 c 0
EndSplineSet
EndChar
StartChar: dotlessi
Encoding: 305 305 107
Width: 333
Flags: MW
HStem: -11 71 409 59
VStem: 121 74
LayerCount: 2
Fore
SplineSet
200 392 m 1
 192 182 l 1
 192 108 201 65 236 65 c 0
 274 65 301 86 328 110 c 1
 341 100 l 1
 341 89 l 1
 307 44 255 -8 200 -8 c 0
 157 -8 120 5 120 104 c 1
 126 325 l 1
 126 377 117 410 91 410 c 0
 69 410 35 393 11 378 c 1
 -2 396 l 1
 43 432 99 471 138 471 c 0
 183 471 200 436 200 392 c 1
EndSplineSet
EndChar
StartChar: dotlessj
Encoding: 567 567 108
Width: 332
Flags: MW
HStem: -191 21 408 60<95 179>
VStem: 149 72
LayerCount: 2
Fore
SplineSet
27 375 m 1
 14 393 l 1
 55 425 112 468 155 468 c 0
 203 468 213 434 216 401 c 1
 223 358 223 191 223 154 c 0
 223 134 223 -6 211 -41 c 0
 181 -128 105 -188 15 -231 c 1
 -1 -215 l 1
 73 -171 113 -126 127 -76 c 0
 144 -14 147 110 147 154 c 0
 147 396 139 408 103 408 c 0
 87 408 52 388 27 375 c 1
EndSplineSet
EndChar
StartChar: gravecomb
Encoding: 768 768 164
Width: 0
Flags: W
LayerCount: 2
Fore
SplineSet
72 487 m 1
 90 518 l 1
 -30 675 l 1
 -43 677 l 1
 -90 641 l 1
 72 487 l 1
EndSplineSet
EndChar
StartChar: tildecomb
Encoding: 771 771 167
Width: 0
Flags: W
VStem: -147 14<530.5 544.944> 132 13<603.85 616.692>
DStem2: 45 581 -37 573 0.902861 -0.429934<-127.817 54.6708>
LayerCount: 2
Fore
SplineSet
-2 602 m 2
 45 581 l 2
 59 575 75 570 91 572 c 0
 115 575 123 596 132 619 c 1
 145 614 l 1
 142 585 122 536 90 531 c 0
 68 528 46 534 26 543 c 2
 -37 573 l 2
 -52 580 -70 584 -87 582 c 0
 -111 579 -121 561 -133 528 c 1
 -147 533 l 1
 -139 568 -120 618 -85 623 c 0
 -59 627 -28 613 -2 602 c 2
EndSplineSet
EndChar
StartChar: uni0304
Encoding: 772 772 168
Width: 0
Flags: W
HStem: 555 40<-114 115>
VStem: -121 242
LayerCount: 2
Fore
SplineSet
115 555 m 1
 -121 555 l 1
 -114 595 l 1
 121 595 l 1
 115 555 l 1
EndSplineSet
EndChar
StartChar: uni0308
Encoding: 776 776 166
Width: 0
Flags: W
HStem: 519 114<-145.42 -55.3953 56.5802 146.605>
VStem: -160 118<532.255 617.75> 42 118<532.255 617.75>
LayerCount: 2
Fore
SplineSet
160 575 m 1
 158 542 132 519 100 519 c 0
 68 519 42 545 42 577 c 0
 42 611 77 633 106 633 c 0
 140 633 160 605 160 575 c 1
-42 575 m 1
 -44 542 -70 519 -102 519 c 0
 -134 519 -160 545 -160 577 c 0
 -160 611 -125 633 -96 633 c 0
 -62 633 -42 605 -42 575 c 1
EndSplineSet
EndChar
StartChar: uni030A
Encoding: 778 778 169
Width: 0
Flags: W
HStem: 478 30<-41.8019 41.8019> 642 30<-41.8019 41.8019>
VStem: -97 30<533.198 616.802> 67 30<533.198 616.802>
LayerCount: 2
Fore
SplineSet
-97 575 m 0
 -97 629 -54 672 0 672 c 0
 54 672 97 629 97 575 c 0
 97 521 54 478 0 478 c 0
 -54 478 -97 521 -97 575 c 0
-67 575 m 0
 -67 538 -37 508 0 508 c 0
 37 508 67 538 67 575 c 0
 67 612 37 642 0 642 c 0
 -37 642 -67 612 -67 575 c 0
EndSplineSet
EndChar
StartChar: uni0327
Encoding: 807 807 170
Width: 0
Flags: W
LayerCount: 2
Fore
SplineSet
-20 6 m 25
 -72 -112 l 17
 -35 -123 15 -154 -13 -192 c 0
 -27 -210 -59 -224 -85 -234 c 1
 -90 -244 l 1
 -84 -259 l 1
 -29 -249 41 -231 74 -187 c 0
 100 -151 91 -115 68 -87 c 0
 49 -64 9 -46 -4 -41 c 1
 16 6 l 9
 -20 6 l 25
EndSplineSet
EndChar
StartChar: Gamma
Encoding: 915 915 0
Width: 429
Flags: MW
HStem: -7 21<119 119> 650 43
VStem: 116 80 480 28
LayerCount: 2
Fore
SplineSet
496 697 m 1
 509 522 l 1
 484 522 l 1
 459 604 l 2
 444 653 349 652 290 652 c 0
 270 652 249 651 229 650 c 0
 191 647 193 586 193 549 c 0
 193 372 193 194 196 16 c 1
 119 -7 l 1
 109 4 l 1
 112 187 116 461 116 553 c 0
 116 583 121 633 100 651 c 2
 74 673 l 1
 77 693 l 1
 314 693 l 2
 375 693 436 694 496 697 c 1
EndSplineSet
EndChar
StartChar: Xi
Encoding: 926 926 4
Width: 596
Flags: MW
HStem: -4 19 133 20<53 53> 330 69 523 21<27 27> 618 77
VStem: 27 542<147 152 147 523>
LayerCount: 2
Fore
SplineSet
547 688 m 1
 569 524 l 1
 535 524 l 1
 519 585 l 1
 515 606 492 618 474 618 c 2
 128 618 l 2
 108 618 84 609 77 589 c 2
 54 525 l 1
 27 523 l 1
 34 580 35 638 40 695 c 1
 547 688 l 1
122 329 m 1
 139 399 l 1
 176 397 213 397 250 397 c 0
 314 397 377 399 441 402 c 1
 426 330 l 1
 372 331 318 332 263 332 c 0
 216 332 169 331 122 329 c 1
569 147 m 1
 554 -6 l 2
 553 -6 210 -2 38 0 c 0
 38 1 31 101 27 152 c 1
 53 153 l 1
 67 102 l 2
 72 83 87 72 104 72 c 2
 505 72 l 2
 527 72 526 84 544 147 c 1
 569 147 l 1
EndSplineSet
EndChar
StartChar: Pi
Encoding: 928 928 5
Width: 723
Flags: MW
HStem: -14 21<529 529> 640 48
VStem: 111 84 518 82
LayerCount: 2
Fore
SplineSet
693 658 m 1
 617 641 l 2
 612 640 608 638 604 635 c 1
 599 628 597 513 597 412 c 0
 597 277 599 143 609 8 c 1
 529 -14 l 1
 515 -3 l 1
 518 95 518 192 518 290 c 0
 518 398 517 519 516 627 c 0
 516 637 505 640 503 640 c 2
 214 640 l 2
 208 640 200 634 200 626 c 0
 193 525 193 424 193 322 c 0
 193 240 196 118 198 15 c 1
 113 -4 l 1
 106 2 l 1
 113 155 114 307 114 461 c 0
 114 485 114 510 114 534 c 0
 114 564 113 620 101 632 c 0
 92 640 83 643 26 660 c 1
 26 690 l 1
 101 685 176 681 251 681 c 2
 449 681 l 2
 493 681 612 684 693 686 c 1
 693 658 l 1
EndSplineSet
EndChar
StartChar: Upsilon
Encoding: 933 933 7
Width: 716
Flags: MW
HStem: -11 21<318 318> 626 76
VStem: 20 23 302 83 662 23
LayerCount: 2
Fore
SplineSet
685 546 m 1
 663 543 l 1
 657 580 639 618 587 618 c 0
 559 618 534 607 514 587 c 0
 387 460 385 347 385 25 c 1
 318 -11 l 1
 301 -4 l 1
 305 71 305 146 305 221 c 0
 305 297 298 373 278 446 c 0
 257 523 209 625 125 625 c 0
 78 625 51 588 39 548 c 1
 20 555 l 1
 32 624 61 697 155 697 c 0
 301 697 333 505 346 375 c 1
 355 375 l 1
 376 498 424 697 579 697 c 0
 664 697 685 621 685 546 c 1
EndSplineSet
Colour: ff0000
EndChar
StartChar: Phi
Encoding: 934 934 8
Width: 833
Flags: MW
HStem: 86 28<358 358> 573 28<357 358> 657 27<279 279>
VStem: 73 92<292.5 364.5> 365 86<80 80 80 122 122 565 608 620 620 621> 656 92<335.5 437.5>
LayerCount: 2
Fore
SplineSet
279 684 m 1
 538 686 l 1
 538 661 l 1
 475 651 l 2
 460 649 451 635 451 621 c 2
 451 608 l 1
 458 601 l 1
 671 601 748 503 748 373 c 0
 748 298 728 221 675 168 c 0
 623 116 531 89 459 86 c 1
 451 80 l 1
 454 60 467 42 488 38 c 2
 547 26 l 1
 547 2 l 1
 279 2 l 1
 279 23 l 1
 341 38 l 2
 357 42 363 64 365 80 c 1
 358 86 l 1
 214 88 73 159 73 332 c 0
 73 397 90 464 137 512 c 0
 194 570 275 599 357 601 c 1
 365 608 l 1
 365 620 l 2
 365 634 355 646 342 648 c 2
 279 657 l 1
 279 684 l 1
451 565 m 1
 451 122 l 1
 457 114 l 1
 596 117 656 233 656 352 c 0
 656 523 567 571 458 573 c 1
 451 565 l 1
365 121 m 1
 365 565 l 1
 358 573 l 1
 236 568 165 463 165 347 c 0
 165 238 232 117 358 114 c 1
 365 121 l 1
EndSplineSet
EndChar
StartChar: Psi
Encoding: 936 936 9
Width: 703
Flags: MW
HStem: -1 31 248 27<266.5 326> 634 60
VStem: 83 75 335 75 579 75
LayerCount: 2
Fore
SplineSet
409 244 m 1
 411 86 l 2
 411 64 422 43 444 38 c 2
 501 26 l 1
 501 -1 l 1
 235 -1 l 1
 235 26 l 1
 303 38 l 2
 325 42 332 78 332 87 c 2
 332 242 l 1
 326 248 l 1
 207 248 136 282 113 372 c 1
 64 539 111 644 44 644 c 2
 44 644 43 644 42 644 c 2
 -21 634 l 1
 -28 656 l 1
 80 692 l 2
 83 694 103 694 115 694 c 0
 151 694 158 653 158 595 c 0
 158 463 176 283 326 275 c 1
 332 282 l 1
 332 365 l 2
 332 465 332 585 326 667 c 1
 412 690 l 1
 416 682 l 1
 409 607 403 533 403 458 c 0
 403 399 404 340 406 282 c 1
 413 276 l 1
 525 282 554 396 572 523 c 0
 578 567 579 612 591 655 c 1
 625 667 660 675 695 679 c 1
 698 661 l 1
 654 633 653 578 637 488 c 1
 606 285 532 253 415 251 c 1
 409 244 l 1
EndSplineSet
Colour: ff0000
EndChar
StartChar: gamma
Encoding: 947 947 13
Width: 608
Flags: MW
HStem: -198 21<278 278> 411 58
VStem: -25 607<358 443>
LayerCount: 2
Fore
SplineSet
522 470 m 1
 582 443 l 1
 502 312 412 188 337 54 c 1
 320 11 l 1
 320 3 320 -4 320 -12 c 0
 320 -65 317 -120 312 -172 c 1
 278 -198 l 1
 257 -191 239 -179 222 -165 c 1
 275 0 l 1
 275 39 244 300 171 372 c 0
 152 390 127 403 101 403 c 0
 74 403 34 396 14 373 c 2
 -9 346 l 1
 -25 358 l 1
 25 435 67 469 144 469 c 0
 293 469 317 238 317 92 c 1
 325 90 l 1
 390 210 472 370 509 465 c 1
 522 470 l 1
EndSplineSet
EndChar
StartChar: delta
Encoding: 948 948 14
Width: 501
Flags: MW
HStem: -9 53<211.5 269.5> 646 48<267.5 268>
VStem: 56 77<176 211.5> 374 64<186.5 245>
LayerCount: 2
Fore
SplineSet
384 687 m 1
 389 679 l 1
 374 637 l 1
 339 639 301 646 235 646 c 0
 202 646 170 637 170 605 c 0
 170 578 195 562 275 486 c 2
 370 395 l 1
 408 356 438 306 438 251 c 0
 438 122 335 -9 204 -9 c 0
 100 -9 56 78 56 160 c 0
 56 263 137 365 214 442 c 1
 176 477 122 527 122 565 c 0
 122 578 127 590 133 602 c 0
 168 673 231 694 304 694 c 0
 331 694 355 691 384 687 c 1
238 422 m 1
 168 350 133 288 133 212 c 0
 133 140 169 44 254 44 c 0
 329 44 374 126 374 209 c 0
 374 281 298 362 238 422 c 1
EndSplineSet
EndChar
StartChar: epsilon
Encoding: 949 949 34
Width: 486
Flags: MW
HStem: -15 53<248 265.5> 232 44 430 41<244.5 275>
VStem: 82 66
LayerCount: 2
Fore
SplineSet
392 430 m 1
 362 365 l 1
 351 366 l 1
 336 409 295 430 255 430 c 0
 215 430 169 402 169 353 c 0
 169 266 227 279 308 274 c 1
 287 227 l 1
 272 231 257 232 241 232 c 0
 196 232 148 205 148 151 c 0
 148 78 216 38 280 38 c 0
 326 38 374 66 413 98 c 1
 422 96 l 1
 430 82 l 1
 377 25 305 -15 226 -15 c 0
 152 -15 78 30 78 109 c 0
 78 166 109 210 163 235 c 1
 163 242 l 1
 140 256 120 290 120 320 c 0
 120 416 202 471 287 471 c 0
 326 471 361 452 392 430 c 1
EndSplineSet
EndChar
StartChar: zeta
Encoding: 950 950 16
Width: 512
Flags: MW
HStem: -136 21<419 419> 1 46 620 27<347 388> 675 20<221 223>
VStem: 84 77<168.5 253.5> 432 59<-52 24>
LayerCount: 2
Fore
SplineSet
419 -136 m 1
 398 -124 l 1
 413 -97 432 -65 432 -39 c 0
 432 -15 403 -1 381 -1 c 0
 340 -1 272 -10 246 -10 c 0
 122 -10 84 81 84 174 c 0
 84 333 218 504 348 613 c 1
 347 620 l 1
 256 628 l 1
 231 632 205 638 187 655 c 0
 187 656 187 657 189 659 c 2
 217 694 l 2
 219 695 220 695 222 695 c 0
 224 695 223 695 230 691 c 0
 278 659 320 647 375 647 c 0
 401 647 430 650 464 655 c 1
 464 636 l 1
 309 587 161 391 161 210 c 0
 161 127 206 47 310 47 c 0
 350 47 387 53 411 53 c 0
 452 53 491 42 491 6 c 0
 491 -42 451 -96 419 -136 c 1
EndSplineSet
EndChar
StartChar: eta
Encoding: 951 951 17
Width: 560
Flags: MW
HStem: -199 21<397 397> -11 21<101 101> 402 61
VStem: 92 75<-1 393 334 393> 389 74
LayerCount: 2
Fore
SplineSet
397 -199 m 1
 388 -188 l 1
 389 -161 389 20 389 125 c 0
 389 295 409 402 304 402 c 0
 257 402 209 373 168 344 c 1
 166 320 166 237 166 184 c 0
 166 138 170 71 173 14 c 1
 101 -11 l 1
 92 -1 l 1
 92 334 l 2
 92 366 90 408 53 408 c 0
 34 408 6 389 -16 375 c 1
 -32 393 l 1
 4 422 53 463 98 463 c 0
 139 463 164 442 167 393 c 1
 178 391 l 1
 234 428 305 466 369 466 c 0
 473 466 462 381 462 204 c 0
 462 81 464 -42 479 -164 c 1
 397 -199 l 1
EndSplineSet
EndChar
StartChar: theta
Encoding: 952 952 18
Width: 554
Flags: MW
HStem: -11 58<225.5 285.5> 328 42 648 47<259.5 331>
VStem: 59 77<270.5 326 270.5 355> 406 80<282.5 435>
LayerCount: 2
Fore
SplineSet
231 -11 m 0
 78 -11 59 190 59 325 c 0
 59 385 60 447 79 505 c 0
 113 613 202 695 317 695 c 0
 470 695 486 502 486 368 c 0
 486 308 481 247 463 191 c 0
 431 88 340 -11 231 -11 c 0
142 370 m 1
 396 370 l 1
 401 377 l 1
 395 481 390 648 272 648 c 0
 147 648 136 471 136 377 c 1
 142 370 l 1
398 333 m 1
 143 333 l 1
 136 326 l 1
 136 215 163 47 288 47 c 0
 315 47 336 64 355 83 c 0
 402 131 406 240 406 325 c 1
 398 333 l 1
EndSplineSet
EndChar
StartChar: iota
Encoding: 953 953 19
Width: 335
Flags: MW
HStem: -9 73<204.5 210.5> 454 20<182 182>
VStem: 101 75<172.5 240 172.5 449>
LayerCount: 2
Fore
SplineSet
319 109 m 1
 332 95 l 1
 294 47 239 -9 182 -9 c 0
 130 -9 101 52 101 102 c 2
 101 449 l 1
 182 474 l 1
 193 464 l 1
 178 375 176 285 176 195 c 0
 176 150 174 64 235 64 c 0
 263 64 290 88 310 108 c 1
 319 109 l 1
EndSplineSet
Colour: ff0000
EndChar
StartChar: kappa
Encoding: 954 954 20
Width: 555
Flags: MW
HStem: -4 21<131 131> 452 20<453 453>
VStem: 116 75
LayerCount: 2
Fore
SplineSet
504 441 m 1
 503 426 l 1
 414 388 301 323 258 272 c 0
 257 270 257 268 257 266 c 2
 261 255 l 1
 341 180 427 112 516 48 c 1
 515 34 l 1
 448 -2 l 1
 363 70 273 146 197 216 c 1
 188 212 l 1
 188 151 191 85 194 22 c 1
 131 -4 l 1
 115 1 l 1
 116 64 116 128 116 191 c 0
 116 274 115 356 112 439 c 1
 191 465 l 1
 196 459 l 1
 194 401 190 295 189 264 c 1
 195 262 l 1
 271 344 359 412 453 472 c 1
 504 441 l 1
EndSplineSet
EndChar
StartChar: nu
Encoding: 957 957 23
Width: 599
Flags: MW
HStem: -8 21<303 303> 409 59
VStem: -31 592
LayerCount: 2
Fore
SplineSet
561 444 m 1
 425 170 l 2
 401 122 379 74 359 24 c 1
 303 -8 l 1
 296 -1 l 1
 284 80 268 161 241 238 c 0
 218 304 175 402 102 402 c 0
 71 402 50 394 35 384 c 1
 15 410 l 1
 50 449 93 471 146 471 c 0
 176 471 209 460 230 439 c 0
 285 384 322 220 348 101 c 1
 353 101 l 1
 409 219 445 329 478 458 c 1
 501 468 l 1
 558 452 l 1
 561 444 l 1
EndSplineSet
Colour: ff0000
EndChar
StartChar: pi
Encoding: 960 960 25
Width: 609
Flags: MW
HStem: -5 71 394 66<133.5 509 186 232 269 412 269 269 484 484> 480 8
VStem: 402 71
LayerCount: 2
Fore
SplineSet
186 460 m 2
 509 460 l 2
 548 460 586 470 620 488 c 1
 628 481 l 1
 593 422 l 1
 559 406 522 395 484 394 c 1
 477 387 l 1
 475 352 471 316 471 282 c 0
 471 192 469 63 534 63 c 0
 552 63 568 69 583 79 c 1
 589 77 l 1
 599 60 l 1
 568 32 527 0 486 0 c 0
 467 0 445 0 433 12 c 0
 404 39 402 102 402 147 c 0
 402 228 408 308 418 388 c 1
 412 394 l 1
 269 394 l 1
 242 264 197 133 153 5 c 1
 142 -5 l 1
 87 10 l 1
 86 23 l 1
 153 139 207 282 232 394 c 1
 158 394 l 2
 109 394 83 384 60 325 c 2
 42 279 l 1
 21 288 l 1
 49 401 l 1
 67 459 128 460 186 460 c 2
EndSplineSet
EndChar
StartChar: rho
Encoding: 961 961 26
Width: 548
Flags: MW
HStem: -189 21<121 121> 0 44 435 39
VStem: 94 67 411 88<192 279>
LayerCount: 2
Fore
SplineSet
121 -189 m 1
 101 -181 l 1
 95 -77 90 28 90 133 c 0
 90 253 87 358 163 425 c 0
 204 461 261 477 315 477 c 0
 366 477 413 459 450 423 c 0
 490 383 499 309 499 251 c 0
 499 133 415 -3 295 -3 c 0
 241 -3 196 25 163 75 c 1
 156 74 l 1
 159 -6 163 -78 183 -156 c 0
 183 -157 179 -165 177 -169 c 1
 121 -189 l 1
161 231 m 0
 161 154 182 47 266 47 c 0
 370 47 411 147 411 234 c 0
 411 324 391 441 300 441 c 0
 189 441 161 321 161 231 c 0
EndSplineSet
Colour: ff0000
EndChar
StartChar: tau
Encoding: 964 964 28
Width: 514
Flags: MW
HStem: -9 21G<276 331.5> 398 63<151 165 165 240 325 393 325 325>
VStem: 232 73<110.5 252>
LayerCount: 2
Fore
SplineSet
142 461 m 2
 396 461 l 2
 434 461 472 468 506 484 c 1
 519 475 l 1
 476 408 l 1
 449 402 421 398 393 398 c 2
 325 398 l 1
 316 390 l 1
 314 356 305 279 305 225 c 0
 305 191 304 57 366 57 c 0
 385 57 411 72 427 82 c 1
 436 80 l 1
 445 66 l 1
 406 29 353 -9 310 -9 c 0
 242 -9 232 79 232 142 c 0
 232 225 240 308 247 391 c 1
 240 398 l 1
 165 398 l 2
 137 398 100 396 80 376 c 0
 67 362 50 316 37 282 c 1
 15 285 l 1
 19 304 41 406 54 426 c 0
 74 456 113 461 142 461 c 2
EndSplineSet
EndChar
StartChar: upsilon
Encoding: 965 965 29
Width: 587
Flags: MW
HStem: -12 63<246.5 299> 414 58<62 153>
VStem: 113 76 444 75<218 280>
LayerCount: 2
Fore
SplineSet
387 398 m 1
 383 416 l 1
 425 467 l 1
 445 471 l 1
 490 423 519 362 519 296 c 0
 519 140 377 -12 221 -12 c 0
 140 -12 113 54 113 119 c 2
 113 330 l 2
 113 371 105 414 75 414 c 0
 49 414 25 396 4 379 c 1
 -12 401 l 1
 26 435 75 472 125 472 c 0
 181 472 191 422 191 376 c 0
 191 310 186 250 186 181 c 0
 186 109 213 51 280 51 c 0
 409 51 444 177 444 253 c 0
 444 307 426 360 387 398 c 1
EndSplineSet
EndChar
StartChar: phi
Encoding: 966 966 30
Width: 728
Flags: MW
HStem: -4 33<258 313> 443 30<403 403>
VStem: 66 83<192.5 248> 321 73<-32.5 -13 -32.5 42 42 433 433 433> 577 82<225.5 286.5>
LayerCount: 2
Fore
SplineSet
405 -156 m 1
 333 -192 l 1
 316 -182 l 1
 317 -125 321 -70 321 -13 c 1
 313 -4 l 1
 116 1 66 97 66 212 c 0
 66 284 90 354 140 405 c 0
 187 452 270 473 312 473 c 1
 321 482 l 1
 321 539 319 596 315 652 c 1
 397 694 l 1
 404 686 l 1
 399 619 396 551 396 483 c 1
 404 473 l 1
 589 473 659 383 659 259 c 0
 659 192 638 123 590 75 c 0
 540 25 473 4 403 2 c 1
 394 -8 l 1
 394 -57 398 -107 405 -156 c 1
402 33 m 1
 515 40 577 156 577 261 c 0
 577 312 566 364 530 401 c 0
 496 435 450 442 403 443 c 1
 394 434 l 1
 394 42 l 1
 402 33 l 1
312 441 m 1
 281 441 232 428 202 398 c 0
 161 357 149 298 149 242 c 0
 149 143 203 29 313 29 c 1
 321 38 l 1
 321 433 l 1
 312 441 l 1
EndSplineSet
Colour: ff0000
EndChar
StartChar: omega
Encoding: 969 969 33
Width: 851
Flags: MW
HStem: -3 66 452 17
VStem: 67 82<192 234.5> 395 72<249 296.5 221.5 438> 714 67<235 274.5>
LayerCount: 2
Fore
SplineSet
649 421 m 1
 691 469 l 1
 705 472 l 1
 756 432 781 370 781 306 c 0
 781 164 676 -4 530 -4 c 0
 473 -4 445 10 409 87 c 1
 397 87 l 1
 352 41 295 -13 225 -13 c 0
 121 -13 67 85 67 176 c 0
 67 293 106 419 241 466 c 1
 257 452 l 1
 179 392 149 323 149 232 c 0
 149 152 179 50 269 50 c 0
 303 50 334 68 358 92 c 0
 391 125 395 196 395 249 c 2
 395 438 l 1
 470 466 l 1
 476 459 l 1
 467 400 467 329 467 264 c 0
 467 179 481 61 575 61 c 0
 669 61 714 157 714 244 c 0
 714 305 694 368 646 409 c 1
 649 421 l 1
EndSplineSet
Colour: ff0000
EndChar
StartChar: theta1
Encoding: 977 977 35
Width: 552
Flags: W
HStem: -14 48<223 264> 334 27<470 522 470 470> 659 39<237 279.5>
VStem: 108 74<130 189 189 228 228 246> 130 42<519.5 593> 395 71<303.5 326>
LayerCount: 2
Fore
SplineSet
391 370 m 1xec
 391 422 385 472 369 521 c 0
 350 579 310 659 249 659 c 0
 205 659 172 620 172 577 c 0
 172 462 275 375 386 365 c 1
 391 370 l 1xec
108 118 m 2xf4
 108 228 l 2
 108 264 104 312 64 312 c 0
 42 312 17 297 -5 284 c 1
 -16 304 l 1
 22 337 74 372 124 372 c 0
 163 372 182 336 182 297 c 2
 182 189 l 2xf4
 182 71 195 34 251 34 c 0
 376 34 395 223 395 326 c 1
 391 331 l 1
 259 344 130 416 130 551 c 0xec
 130 635 195 698 279 698 c 0
 313 698 345 682 369 658 c 0
 445 582 465 466 465 367 c 1
 469 361 l 1
 522 361 l 1
 522 334 l 1
 470 334 l 1
 466 330 l 1
 466 277 459 230 442 180 c 0
 407 80 316 -14 212 -14 c 0
 139 -14 108 42 108 118 c 2xf4
EndSplineSet
EndChar
StartChar: phi1
Encoding: 981 981 37
Width: 763
Flags: MW
HStem: -197 21 -9 35 425 38
VStem: 91 80<233.5 302> 324 67 602 83<244 291>
LayerCount: 2
Fore
SplineSet
320 -183 m 1
 322 -15 l 1
 315 -8 l 1
 256 -2 206 8 154 68 c 0
 109 120 91 180 91 249 c 0
 91 355 175 438 274 467 c 1
 286 445 l 1
 202 406 171 348 171 267 c 0
 171 200 184 121 232 74 c 0
 269 37 296 28 315 28 c 1
 322 35 l 1
 322 240 l 2
 322 301 330 366 388 416 c 0
 431 453 482 464 524 464 c 0
 635 464 685 373 685 277 c 0
 685 208 666 139 617 90 c 0
 559 32 482 4 401 -7 c 1
 394 -15 l 1
 394 -69 397 -122 402 -176 c 1
 333 -197 l 1
 320 -183 l 1
401 26 m 1
 455 28 504 52 542 91 c 0
 587 137 602 211 602 277 c 0
 602 305 587 425 505 425 c 0
 423 425 394 356 394 265 c 2
 394 33 l 1
 401 26 l 1
EndSplineSet
EndChar
StartChar: pi1
Encoding: 982 982 36
Width: 876
Flags: MW
HStem: -9 56 477 58
VStem: 81 79<187.5 236> 400 86 720 70
LayerCount: 2
Fore
SplineSet
478 330 m 1
 486 318 l 1
 486 164 l 2
 486 101 531 56 588 56 c 0
 685 56 723 165 723 249 c 0
 723 307 710 353 659 407 c 0
 600 468 490 477 403 477 c 0
 203 477 157 437 89 369 c 1
 74 385 l 1
 107 424 137 461 182 489 c 0
 224 515 287 541 442 541 c 0
 649 541 790 467 790 306 c 0
 790 164 678 -12 544 -12 c 0
 486 -12 437 25 417 83 c 1
 409 84 l 1
 360 31 297 -8 224 -8 c 0
 119 -8 81 106 81 194 c 0
 81 278 131 336 205 387 c 1
 215 366 l 1
 177 329 160 277 160 224 c 0
 160 151 189 47 272 47 c 0
 376 47 402 155 402 236 c 0
 402 258 399 280 397 302 c 1
 478 330 l 1
EndSplineSet
Colour: ff0000
EndChar
StartChar: quoteleft
Encoding: 8216 8216 115
Width: 215
Flags: W
HStem: 410 299
VStem: 45 114
LayerCount: 2
Fore
SplineSet
119 532 m 2
 151 483 l 2
 156 475 167 456 167 448 c 0
 167 430 134 406 119 406 c 0
 89 406 45 493 45 541 c 0
 45 592 101 660 140 709 c 1
 154 695 l 1
 133 659 105 612 105 577 c 0
 105 561 110 546 119 532 c 2
EndSplineSet
EndChar
StartChar: quoteright
Encoding: 8217 8217 116
Width: 215
Flags: W
HStem: 395 297
VStem: 54 109
LayerCount: 2
Fore
SplineSet
74 395 m 1
 58 406 l 1
 82 447 106 485 106 525 c 0
 106 539 100 551 93 564 c 2
 58 621 l 2
 52 631 44 647 44 654 c 0
 44 669 76 695 92 695 c 0
 120 695 163 606 163 564 c 0
 163 502 109 448 74 395 c 1
EndSplineSet
EndChar
StartChar: fraction
Encoding: 8260 8260 231
Width: 70
Flags: W
HStem: -4 21G<-199 -155.297> 684 20G<234 266>
DStem2: -199 23 -168 -4 0.536161 0.844116<0 806.156>
LayerCount: 2
Fore
SplineSet
266 695 m 1
 269 684 l 1
 -168 -4 l 1
 -199 9 l 1
 -199 23 l 1
 234 703 l 1
 245 704 l 1
 266 695 l 1
EndSplineSet
EndChar
StartChar: weierstrass
Encoding: 8472 8472 109
Width: 604
Flags: MW
HStem: -196 44 -6 54 407 64
VStem: 60 49 259 41<-55 -21> 506 60<260 283.5>
LayerCount: 2
Fore
SplineSet
285 59 m 1
 332 102 l 1
 339 101 l 1
 348 66 368 49 395 49 c 0
 483 49 506 159 506 251 c 0
 506 316 484 410 404 410 c 0
 385 410 375 408 347 397 c 0
 308 381 245 289 205 227 c 1
 235 174 266 115 285 59 c 1
198 464 m 1
 212 454 l 1
 186 421 161 385 161 342 c 0
 161 315 172 287 183 265 c 1
 192 265 l 1
 210 291 l 1
 249 353 328 472 446 472 c 0
 545 472 566 378 566 306 c 0
 566 214 541 117 475 51 c 0
 447 23 408 -6 371 -6 c 0
 341 -6 314 9 294 30 c 1
 298 15 300 1 300 -14 c 0
 300 -96 258 -196 166 -196 c 0
 91 -196 60 -126 60 -65 c 0
 60 11 118 132 146 184 c 1
 126 221 105 263 105 306 c 0
 105 372 147 427 198 464 c 1
161 144 m 1
 131 92 110 20 110 -30 c 0
 110 -77 126 -148 182 -148 c 0
 240 -148 259 -96 259 -51 c 0
 259 9 208 84 170 144 c 1
 161 144 l 1
EndSplineSet
EndChar
StartChar: Omega
Encoding: 8486 8486 10
Width: 876
Flags: MW
HStem: -2 67 651 38
VStem: 98 88<281.5 386> 679 90<320.5 436.5>
LayerCount: 2
Fore
SplineSet
835 60 m 1
 844 51 l 1
 819 -2 l 1
 760 3 700 5 641 5 c 0
 585 5 529 3 473 -1 c 1
 482 57 l 1
 636 93 679 230 679 368 c 0
 679 505 611 654 444 654 c 0
 254 654 186 489 186 329 c 0
 186 211 231 81 375 53 c 1
 354 -2 l 1
 284 4 215 8 146 8 c 0
 105 8 65 7 25 4 c 1
 42 65 l 1
 103 62 179 59 232 54 c 1
 238 69 l 1
 128 128 98 225 98 338 c 0
 98 434 126 527 194 595 c 0
 265 666 364 689 463 689 c 0
 700 689 769 538 769 385 c 0
 769 256 719 118 584 63 c 1
 584 51 l 1
 669 55 765 60 835 60 c 1
EndSplineSet
Colour: ff0000
EndChar
StartChar: partialdiff
Encoding: 8706 8706 53
Width: 560
Flags: MW
HStem: -11 45 421 36 640 62
VStem: 81 84 407 77
LayerCount: 2
Fore
SplineSet
101 548 m 1
 83 555 l 1
 111 637 167 699 257 699 c 0
 432 699 485 480 485 322 c 0
 485 221 470 108 388 39 c 0
 355 11 314 -7 272 -7 c 0
 214 -7 161 2 126 44 c 0
 92 85 79 156 79 203 c 0
 79 332 153 457 306 457 c 0
 327 457 350 454 386 444 c 1
 390 448 l 1
 365 548 313 642 220 642 c 0
 156 642 122 596 101 548 c 1
383 125 m 0
 401 176 408 232 408 286 c 0
 408 326 404 366 396 405 c 1
 371 416 344 425 317 425 c 0
 200 425 163 296 163 205 c 0
 163 157 186 33 285 33 c 0
 338 33 368 80 383 125 c 0
EndSplineSet
EndChar
StartChar: minus
Encoding: 8722 8722 123
Width: 756
Flags: W
HStem: 236 40<53 704 46 710>
LayerCount: 2
Fore
SplineSet
704 236 m 1
 46 236 l 1
 53 276 l 1
 710 276 l 1
 704 236 l 1
EndSplineSet
EndChar
StartChar: f.alt
Encoding: 65539 -1 111
Width: 268
Flags: W
HStem: 641 28<221.734 290>
VStem: 98 73<45.0477 283 440 571.626>
LayerCount: 2
Back
SplineSet
-14 434 m 1
 91 434 l 1
 97 440 l 1
 97 475 99 526 115 562 c 0
 145 632 205 669 268 669 c 0
 322 669 348 642 361 615 c 1
 303 561 l 1
 291 565 l 1
 287 586 280 629 233 629 c 0
 190 629 173 542 173 440 c 1
 177 434 l 1
 301 434 l 1
 306 427 l 1
 299 405 l 1
 292 399 l 1
 177 399 l 1
 171 393 l 1
 171 282 l 2
 171 188 174 93 181 12 c 1
 102 -12 l 1
 85 -1 l 1
 92 98 98 192 98 283 c 2
 98 391 l 1
 92 399 l 1
 -20 399 l 1
 -25 406 l 1
 -21 428 l 1
 -14 434 l 1
268 775.900390625 m 29
 268 391.900390625 l 29
549 112 m 5xb0
 560 112 l 5
 571 100 l 5
 537 47 485 -11 419 -11 c 4
 368 -11 337 15 337 130 c 5
 344 508 l 6
 344 541 344 584 339 608 c 4
 332 639 284 636 252 638 c 5
 252 661 l 5
 258 666 l 5xd0
 423 686 l 5
 429 679 l 5
 425 539 415 399 415 259 c 4
 415 160 403 69 463 65 c 5
 496 65 524 90 549 112 c 5xb0
EndSplineSet
Fore
SplineSet
290 669 m 1
 268 669 l 0
 205 669 145 632 115 562 c 0
 99 526 97 475 97 440 c 1
 91 434 l 1
 -14 434 l 1
 -21 428 l 1
 -25 406 l 1
 -20 399 l 1
 92 399 l 1
 98 391 l 1
 98 283 l 2
 98 192 92 98 85 -1 c 1
 102 -12 l 1
 181 12 l 1
 174 93 171 188 171 282 c 2
 171 393 l 1
 177 399 l 1
 292 399 l 1
 299 405 l 1
 306 427 l 1
 301 434 l 1
 177 434 l 1
 173 440 l 1
 173 506.019190333 179 570 201 607 c 0
 213 627 229.129311771 635.705506072 251 638 c 0
 293.776858978 642.487798562 284.25 639.75 290 641 c 1
 290 669 l 1
EndSplineSet
EndChar
